<svg width="17" height="17" viewBox="0 0 17 17" fill="none" xmlns="http://www.w3.org/2000/svg">
<path d="M1.61381 13.5673C1.66244 13.3883 1.55497 13.1394 1.4524 12.96C1.42046 12.9066 1.38581 12.8547 1.3486 12.8048C0.468874 11.4706 -1.57818e-05 9.90765 4.02044e-05 8.30957C-0.0142627 3.72243 3.78949 0 8.49309 0C12.5952 0 16.0193 2.84178 16.8194 6.61406C16.9393 7.17334 16.9998 7.74371 17 8.3157C17 12.9094 13.343 16.6902 8.63939 16.6902C7.89155 16.6902 6.88218 16.5023 6.33172 16.3482C5.78127 16.1941 5.23163 15.9898 5.08982 15.935C4.9448 15.8793 4.79077 15.8506 4.6354 15.8505C4.46569 15.8498 4.29762 15.8836 4.14134 15.9498L1.36944 16.9501C1.30871 16.9763 1.24437 16.9931 1.1786 17C1.1267 16.9998 1.07534 16.9894 1.02751 16.9692C0.979681 16.9491 0.936322 16.9197 0.899947 16.8826C0.863572 16.8456 0.834905 16.8018 0.815606 16.7536C0.796307 16.7054 0.786759 16.6539 0.787516 16.602C0.790925 16.5564 0.799144 16.5113 0.812035 16.4675L1.61381 13.5673Z" fill="black"/>
</svg>
