<svg width="25" height="27" viewBox="0 0 25 27" fill="none" xmlns="http://www.w3.org/2000/svg">
<path d="M22.8337 17.0154C22.1673 15.9069 21.2453 14.9987 20.1557 14.3772C15.7791 11.6936 8.68614 11.6936 4.31372 14.3772C3.22413 14.9987 2.30219 15.9069 1.63578 17.0154H1.02271V19.4496C1.1036 21.145 2.19351 22.8267 4.29669 24.1186C8.66911 26.8067 15.762 26.8067 20.1387 24.1186C22.2419 22.8267 23.3403 21.145 23.4212 19.4496V17.0154H22.8337Z" fill="#FFC100"/>
<g opacity="0.25">
<path opacity="0.25" d="M22.8337 17.0151C22.1673 15.9067 21.2453 14.9984 20.1557 14.3769C15.7791 11.6934 8.68614 11.6934 4.31372 14.3769C3.22413 14.9984 2.30219 15.9067 1.63578 17.0151H1.02271V19.4494C1.1036 21.1447 2.19351 22.8265 4.29669 24.1184C8.66911 26.8065 15.762 26.8065 20.1387 24.1184C22.2419 22.8265 23.3403 21.1447 23.4212 19.4494V17.0151H22.8337Z" fill="black"/>
</g>
<path opacity="0.1" d="M12.2369 12.3604C9.36733 12.3604 6.50206 13.0358 4.31372 14.3776C3.22413 14.9991 2.30219 15.9073 1.63578 17.0158H1.02271V19.45C1.1036 21.1453 2.19351 22.8271 4.29669 24.119C6.48503 25.4789 9.3503 26.1362 12.2198 26.1362L12.2369 12.3604Z" fill="black"/>
<path opacity="0.1" d="M6.13166 13.4807C5.50962 13.7313 4.9074 14.0345 4.33075 14.3873C3.24116 15.0088 2.31922 15.9171 1.65281 17.0255H1.02271V19.4598C1.1036 21.1551 2.19351 22.8369 4.29669 24.1288C4.87245 24.4834 5.47481 24.7867 6.0976 25.0354L6.13166 13.4807Z" fill="black"/>
<path opacity="0.5" d="M18.3508 13.4807C18.9742 13.7313 19.5779 14.0345 20.156 14.3873C21.2456 15.0088 22.1675 15.9171 22.8339 17.0255H23.4385V19.4598C23.3576 21.1551 22.2592 22.8369 20.156 24.1288C19.5788 24.4834 18.975 24.7867 18.3508 25.0354V13.4807Z" fill="#FFC100"/>
<path d="M20.1559 12.1479C15.7792 9.45526 8.68628 9.45526 4.31387 12.1479C-0.0585477 14.8405 -0.0628048 19.1967 4.31387 21.8848C8.69054 24.5729 15.7792 24.5729 20.1559 21.8848C24.5326 19.1967 24.5326 14.836 20.1559 12.1479Z" fill="#FFC100"/>
<path opacity="0.2" d="M20.1559 12.1479C15.7792 9.45526 8.68628 9.45526 4.31387 12.1479C-0.0585477 14.8405 -0.0628048 19.1967 4.31387 21.8848C8.69054 24.5729 15.7792 24.5729 20.1559 21.8848C24.5326 19.1967 24.5326 14.836 20.1559 12.1479Z" fill="black"/>
<path d="M17.393 13.9283C15.7813 13.1176 14.0151 12.7158 12.233 12.7542C10.4523 12.7163 8.68755 13.1182 7.07719 13.9283C5.60837 14.7261 4.80371 15.8231 4.80371 17.0153C4.80371 18.2075 5.60837 19.2818 7.07719 20.1023C8.68755 20.9124 10.4523 21.3142 12.233 21.2763C14.0151 21.3148 15.7813 20.9129 17.393 20.1023C18.8576 19.2999 19.6665 18.2075 19.6665 17.0153C19.6665 15.8231 18.8576 14.7261 17.393 13.9283Z" fill="#FFC100"/>
<path opacity="0.4" d="M17.393 13.9283C15.7813 13.1176 14.0151 12.7158 12.233 12.7542C10.4523 12.7163 8.68755 13.1182 7.07719 13.9283C5.60837 14.7261 4.80371 15.8231 4.80371 17.0153C4.80371 18.2075 5.60837 19.2818 7.07719 20.1023C8.68755 20.9124 10.4523 21.3142 12.233 21.2763C14.0151 21.3148 15.7813 20.9129 17.393 20.1023C18.8576 19.2999 19.6665 18.2075 19.6665 17.0153C19.6665 15.8231 18.8576 14.7261 17.393 13.9283Z" fill="black"/>
<path d="M19.913 12.6013C17.8694 11.3456 15.1404 10.6521 12.2495 10.6521C9.35872 10.6521 6.61692 11.3456 4.58611 12.6013C2.62767 13.8071 1.55054 15.371 1.55054 17.021C1.55054 18.671 2.62767 20.2349 4.58611 21.4407C6.62969 22.6963 9.35446 23.3899 12.2495 23.3899C15.1446 23.3899 17.8864 22.6963 19.913 21.4407C21.8714 20.2349 22.9485 18.6665 22.9485 17.021C22.9485 15.3755 21.8842 13.8025 19.913 12.6013ZM17.3926 20.108C15.7809 20.9186 14.0146 21.3205 12.2325 21.282C10.4518 21.32 8.68708 20.9181 7.07672 20.108C5.6079 19.3056 4.80324 18.2132 4.80324 17.021C4.80324 15.8288 5.6079 14.7318 7.07672 13.934C8.68708 13.1239 10.4518 12.722 12.2325 12.76C14.0146 12.7215 15.7809 13.1234 17.3926 13.934C18.8571 14.7318 19.666 15.8288 19.666 17.021C19.666 18.2132 18.8571 19.3011 17.3926 20.1034V20.108Z" fill="#FFC100"/>
<path opacity="0.3" d="M19.913 12.6013C17.8694 11.3456 15.1404 10.6521 12.2495 10.6521C9.35872 10.6521 6.61692 11.3456 4.58611 12.6013C2.62767 13.8071 1.55054 15.371 1.55054 17.021C1.55054 18.671 2.62767 20.2349 4.58611 21.4407C6.62969 22.6963 9.35446 23.3899 12.2495 23.3899C15.1446 23.3899 17.8864 22.6963 19.913 21.4407C21.8714 20.2349 22.9485 18.6665 22.9485 17.021C22.9485 15.3755 21.8842 13.8025 19.913 12.6013ZM17.3926 20.108C15.7809 20.9186 14.0146 21.3205 12.2325 21.282C10.4518 21.32 8.68708 20.9181 7.07672 20.108C5.6079 19.3056 4.80324 18.2132 4.80324 17.021C4.80324 15.8288 5.6079 14.7318 7.07672 13.934C8.68708 13.1239 10.4518 12.722 12.2325 12.76C14.0146 12.7215 15.7809 13.1234 17.3926 13.934C18.8571 14.7318 19.666 15.8288 19.666 17.021C19.666 18.2132 18.8571 19.3011 17.3926 20.1034V20.108Z" fill="white"/>
<path opacity="0.2" d="M17.2011 19.7351C19.9514 18.2347 19.9514 15.7959 17.2011 14.2955C14.4508 12.7951 9.98469 12.7951 7.23437 14.2955C4.48405 15.7959 4.48405 18.2392 7.23437 19.7351C9.98469 21.231 14.4635 21.2401 17.2011 19.7351Z" fill="black"/>
<path d="M17.2011 19.7351C19.9514 18.2347 19.9514 15.7959 17.2011 14.2955C14.4508 12.7951 9.98469 12.7951 7.23437 14.2955C4.48405 15.7959 4.48405 18.2392 7.23437 19.7351C9.98469 21.231 14.4635 21.2401 17.2011 19.7351Z" fill="#FFC100"/>
<path opacity="0.45" d="M17.2011 19.7351C19.9514 18.2347 19.9514 15.7959 17.2011 14.2955C14.4508 12.7951 9.98469 12.7951 7.23437 14.2955C4.48405 15.7959 4.48405 18.2392 7.23437 19.7351C9.98469 21.231 14.4635 21.2401 17.2011 19.7351Z" fill="black"/>
<path d="M17.2014 15.3201C14.4468 13.8197 9.98497 13.8197 7.23465 15.3201C6.09791 15.9412 5.42949 16.7254 5.23364 17.5323C5.42949 18.3437 6.08514 19.1234 7.23465 19.7444C9.98497 21.2494 14.4468 21.2494 17.2014 19.7444C18.3381 19.1234 19.0023 18.3437 19.2024 17.5323C19.0193 16.7163 18.3551 15.9321 17.2014 15.3201Z" fill="#FFC100"/>
<path opacity="0.3" d="M17.2014 15.3201C14.4468 13.8197 9.98497 13.8197 7.23465 15.3201C6.09791 15.9412 5.42949 16.7254 5.23364 17.5323C5.42949 18.3437 6.08514 19.1234 7.23465 19.7444C9.98497 21.2494 14.4468 21.2494 17.2014 19.7444C18.3381 19.1234 19.0023 18.3437 19.2024 17.5323C19.0193 16.7163 18.3551 15.9321 17.2014 15.3201Z" fill="black"/>
<path d="M12.9012 14.3501V15.4516L12.5479 15.846L11.8965 16.5758V15.429L12.9012 14.3501Z" fill="#FFC100"/>
<path opacity="0.3" d="M12.9012 14.3501V15.4516L12.5479 15.846L11.8965 16.5758V15.429L12.9012 14.3501Z" fill="black"/>
<path d="M11.8968 15.4295V16.0777C11.5718 16.2128 11.2353 16.3145 10.8921 16.3814C10.7518 16.4138 10.6066 16.4138 10.4663 16.3814C10.3953 16.3614 10.3267 16.3325 10.262 16.2953C10.0108 16.1366 9.97247 15.9009 10.445 15.6108C10.6575 15.4634 10.8991 15.3703 11.151 15.3388C11.4028 15.3074 11.6581 15.3384 11.8968 15.4295Z" fill="#FFC100"/>
<path opacity="0.45" d="M11.8968 15.4295V16.0777C11.5718 16.2128 11.2353 16.3145 10.8921 16.3814C10.7518 16.4138 10.6066 16.4138 10.4663 16.3814C10.3953 16.3614 10.3267 16.3325 10.262 16.2953C10.0108 16.1366 9.97247 15.9009 10.445 15.6108C10.6575 15.4634 10.8991 15.3703 11.151 15.3388C11.4028 15.3074 11.6581 15.3384 11.8968 15.4295Z" fill="black"/>
<path d="M16.5754 18.5527V19.5046L15.443 20.1981L14.5915 19.6814C13.5747 20.1861 12.4119 20.2431 11.3558 19.84V18.8881L11.8667 18.3441L11.3558 18.4983C10.5105 18.7552 9.60394 18.6443 8.83537 18.19C8.32873 17.8772 8.09032 17.5373 8.09457 17.1882V16.2816L8.18398 15.8782L7.87744 15.6878V14.7358L8.72893 15.2481C8.5589 15.3556 8.41463 15.5037 8.30751 15.6807C8.20038 15.8577 8.13332 16.0587 8.1116 16.268C8.1116 16.608 8.35853 16.9389 8.8524 17.2426C9.95083 17.918 11.0365 17.6959 12.037 17.3559C12.9651 17.0341 13.6378 16.6533 14.1657 16.9842C14.4978 17.1882 14.3956 17.4375 14.0252 17.6642C13.7836 17.8061 13.5152 17.8887 13.2397 17.9059C12.9642 17.9232 12.6885 17.8747 12.4329 17.7639L11.3643 18.8926C11.5554 18.9705 11.7518 19.0327 11.9518 19.0785C12.8464 19.2586 13.7713 19.1398 14.6 18.7385L15.4515 19.2507L16.5754 18.5527Z" fill="#FFC100"/>
<path opacity="0.2" d="M8.11135 16.2503C8.11135 16.5903 8.35829 16.9212 8.85215 17.2249C9.95058 17.9003 11.0362 17.6782 12.0367 17.3382C12.9649 17.0164 13.6375 16.6356 14.1655 16.9665C14.4975 17.1705 14.3954 17.4198 14.025 17.6465C13.7833 17.7884 13.5149 17.8709 13.2394 17.8882C12.9639 17.9055 12.6883 17.8569 12.4327 17.7462L11.3641 18.8749C11.5551 18.9528 11.7516 19.015 11.9516 19.0608C12.8461 19.2408 13.771 19.1221 14.5997 18.7208L15.4512 19.233L16.5837 18.5395V19.4914L15.4512 20.185L14.5997 19.6682C13.5829 20.1729 12.4201 20.2299 11.3641 19.8268V18.8749L11.875 18.331L11.3641 18.4851C10.5187 18.742 9.61221 18.6312 8.84364 18.1768C8.337 17.864 8.09858 17.5241 8.10284 17.175V16.2684L8.19225 15.865" fill="black"/>
<path opacity="0.45" d="M7.89453 14.7173V15.6647L8.20107 15.8596C8.33192 15.6112 8.51208 15.3962 8.72899 15.2295L7.89453 14.7173Z" fill="black"/>
<path d="M16.388 17.9306C16.3895 18.0864 16.3605 18.2408 16.3028 18.3839L15.7366 18.0394C15.9063 17.9575 16.0541 17.8316 16.1664 17.6733C16.2787 17.5149 16.352 17.3291 16.3794 17.1328C16.3837 17.3867 16.388 17.908 16.388 17.9306Z" fill="#FFC100"/>
<g opacity="0.3">
<path opacity="0.3" d="M16.388 17.9314C16.3895 18.0871 16.3605 18.2415 16.3028 18.3847L15.7366 18.0402C15.9063 17.9582 16.0541 17.8324 16.1664 17.674C16.2787 17.5156 16.352 17.3298 16.3794 17.1335C16.3837 17.3874 16.388 17.9087 16.388 17.9314Z" fill="black"/>
</g>
<path d="M16.3835 18.4396L15.7364 18.0407C15.9271 17.948 16.0892 17.7995 16.2038 17.6125C16.3184 17.4255 16.3807 17.2077 16.3835 16.9845C16.3835 16.9527 16.3835 16.921 16.3835 16.8893C16.3393 16.6878 16.2506 16.5004 16.1247 16.3427C15.9988 16.185 15.8394 16.0616 15.6598 15.9827C15.2022 15.7047 14.6836 15.5608 14.1569 15.5656H14.0164H13.8801H13.7609H13.7098H13.6204C13.3733 15.6034 13.1287 15.6579 12.8882 15.7288L12.5476 15.8331L12.075 15.9963L11.8962 16.0643C11.5724 16.1987 11.2374 16.3004 10.8957 16.368C10.7553 16.3991 10.6103 16.3991 10.4699 16.368C10.4001 16.3464 10.3329 16.3159 10.2698 16.2773C10.0186 16.1232 9.98031 15.8875 10.4529 15.5974C10.6667 15.4529 10.909 15.363 11.1608 15.3347C11.4127 15.3064 11.6672 15.3404 11.9047 15.4342L12.9094 14.3553C11.9118 14.0221 10.8344 14.0866 9.87813 14.5366L9.02663 14.0244L7.88989 14.7225L8.74138 15.2347C8.57002 15.3422 8.42459 15.4907 8.31667 15.6686C8.20876 15.8465 8.14134 16.0487 8.11979 16.2592C8.11979 16.5992 8.36673 16.9301 8.86485 17.2338C9.96327 17.9137 11.0532 17.6871 12.0494 17.3471C12.9776 17.0253 13.6502 16.6445 14.1782 16.9754C14.5102 17.1794 14.4081 17.4287 14.0377 17.6554C13.7964 17.7985 13.5279 17.8818 13.2522 17.8991C12.9765 17.9163 12.7007 17.8671 12.4454 17.7551L11.3725 18.8838C11.5652 18.9611 11.763 19.0232 11.9643 19.0697C12.3031 19.1432 12.6493 19.1707 12.9946 19.1513C13.5528 19.1121 14.1003 18.9695 14.6124 18.7297L15.4639 19.2465L16.5921 18.5484L16.3835 18.4396Z" fill="#FFC100"/>
<g opacity="0.3">
<path opacity="0.3" d="M16.384 18.4388L15.7369 18.0399C15.9276 17.9472 16.0897 17.7987 16.2043 17.6117C16.3188 17.4248 16.3812 17.207 16.384 16.9837C16.384 16.952 16.384 16.9203 16.384 16.8885C16.3398 16.687 16.2511 16.4997 16.1252 16.342C15.9993 16.1843 15.8399 16.0609 15.6602 15.9819C15.2027 15.7039 14.6841 15.5601 14.1574 15.5649H14.0169H13.8806H13.7614H13.7103H13.6209C13.3738 15.6027 13.1292 15.6572 12.8886 15.7281L12.548 15.8324L12.0755 15.9955L11.8967 16.0635C11.5728 16.198 11.2379 16.2997 10.8961 16.3672C10.7557 16.3984 10.6108 16.3984 10.4704 16.3672C10.4005 16.3456 10.3334 16.3152 10.2703 16.2766C10.0191 16.1225 9.98079 15.8867 10.4534 15.5966C10.6672 15.4522 10.9095 15.3623 11.1613 15.334C11.4132 15.3057 11.6677 15.3397 11.9052 15.4334L12.9099 14.3546C11.9123 14.0214 10.8349 14.0859 9.87861 14.5359L9.02712 14.0237L7.89038 14.7218L8.74187 15.234C8.57051 15.3414 8.42508 15.49 8.31716 15.6679C8.20925 15.8457 8.14183 16.048 8.12028 16.2585C8.12028 16.5984 8.36722 16.9293 8.86534 17.2331C9.96376 17.913 11.0537 17.6864 12.0499 17.3464C12.978 17.0245 13.6507 16.6438 14.1787 16.9747C14.5107 17.1787 14.4086 17.428 14.0382 17.6546C13.7969 17.7978 13.5284 17.8811 13.2527 17.8983C12.977 17.9156 12.7012 17.8664 12.4459 17.7544L11.373 18.8831C11.5657 18.9604 11.7635 19.0225 11.9648 19.0689C12.3036 19.1425 12.6498 19.1699 12.9951 19.1505C13.5533 19.1114 14.1008 18.9687 14.6129 18.729L15.4644 19.2457L16.5926 18.5476L16.384 18.4388Z" fill="white"/>
</g>
<path d="M14.6084 18.7336V19.681L15.4429 20.1978V19.2459L14.6084 18.7336Z" fill="#FFC100"/>
<path opacity="0.45" d="M14.6084 18.7336V19.681L15.4429 20.1978V19.2459L14.6084 18.7336Z" fill="black"/>
<path opacity="0.5" d="M7.89453 14.7171L9.03127 14.019L9.86999 14.5313L9.03979 14.1596L7.89453 14.7171Z" fill="#F5F5F5"/>
<path opacity="0.5" d="M10.4448 15.5922C10.6586 15.4477 10.9009 15.3578 11.1528 15.3295C11.4046 15.3012 11.6592 15.3352 11.8966 15.429L12.9014 14.3501L11.8966 15.3202C11.6528 15.2307 11.3917 15.2087 11.1377 15.2562C10.8837 15.3038 10.6453 15.4194 10.4448 15.5922Z" fill="#F5F5F5"/>
<path opacity="0.5" d="M11.3687 18.8878C11.5614 18.9651 11.7592 19.0272 11.9604 19.0736C12.2992 19.1472 12.6455 19.1746 12.9907 19.1552C12.4917 19.1594 11.9972 19.0529 11.539 18.8424L12.4415 17.759L11.3687 18.8878Z" fill="#F5F5F5"/>
<path opacity="0.5" d="M14.6084 18.7333L15.4429 19.1322L16.5711 18.552L15.4429 19.2456L14.6084 18.7333Z" fill="#F5F5F5"/>
<path opacity="0.5" d="M4.64169 12.7548C7.62192 10.8374 12.2327 10.647 12.2327 10.647C9.3249 10.647 6.60013 11.3405 4.56932 12.5962C2.61088 13.802 1.53375 15.3658 1.53375 17.0159C1.52097 17.0159 1.62741 14.7086 4.64169 12.7548Z" fill="#F5F5F5"/>
<path opacity="0.5" d="M11.3687 23.8828C14.5192 24.0278 17.7548 23.366 20.1561 21.8837C22.6594 20.347 23.7323 18.2573 23.3704 16.2537C23.3704 16.2537 23.8345 19.522 19.9645 21.7613C16.0944 24.0006 11.3687 23.8828 11.3687 23.8828Z" fill="#F5F5F5"/>
<path d="M22.0974 13.6346C21.4304 12.5278 20.5085 11.6212 19.4194 11.0009C15.047 8.31284 7.95409 8.31284 3.57742 11.0009C2.48834 11.6212 1.56645 12.5278 0.899481 13.6346H0.294922V16.0734C0.384329 17.7687 1.47424 19.446 3.57742 20.7605C7.95409 23.4531 15.047 23.4531 19.4194 20.7605C21.5226 19.4686 22.621 17.7914 22.7019 16.096V13.6573L22.0974 13.6346Z" fill="#FFC100"/>
<g opacity="0.25">
<path opacity="0.25" d="M22.0974 13.6346C21.4304 12.5278 20.5085 11.6212 19.4194 11.0009C15.047 8.31284 7.95409 8.31284 3.57742 11.0009C2.48834 11.6212 1.56645 12.5278 0.899481 13.6346H0.294922V16.0734C0.384329 17.7687 1.47424 19.446 3.57742 20.7605C7.95409 23.4531 15.047 23.4531 19.4194 20.7605C21.5226 19.4686 22.621 17.7914 22.7019 16.096V13.6573L22.0974 13.6346Z" fill="black"/>
</g>
<path opacity="0.1" d="M11.5006 8.97388C8.63103 8.97388 5.76576 9.64477 3.57742 10.9911C2.48834 11.6113 1.56645 12.518 0.899481 13.6248H0.294922V16.0635C0.384329 17.768 1.47424 19.4452 3.57742 20.7597C5.76576 22.1197 8.63103 22.7769 11.5006 22.7769V8.97388Z" fill="black"/>
<path opacity="0.1" d="M5.37833 10.1038C4.75555 10.3525 4.15318 10.6557 3.57742 11.0104C2.48834 11.6306 1.56645 12.5373 0.899481 13.6441H0.294922V16.0828C0.384329 17.7691 1.47424 19.4463 3.57742 20.7609C4.15411 21.1137 4.75632 21.4168 5.37833 21.6675V10.1038Z" fill="black"/>
<path opacity="0.5" d="M17.627 10.1035C18.2497 10.3523 18.8521 10.6555 19.4279 11.0101C20.5169 11.6304 21.4388 12.537 22.1058 13.6438H22.7104V16.0826C22.6295 17.7779 21.531 19.4552 19.4279 20.7471C18.8512 21.0998 18.249 21.403 17.627 21.6537V10.1035Z" fill="#FFC100"/>
<path d="M19.4194 8.76631C15.047 6.07822 7.95409 6.07822 3.57742 8.76631C-0.799245 11.4544 -0.799245 15.8152 3.57742 18.4942C7.95409 21.1732 15.047 21.1823 19.4194 18.4942C23.7918 15.8061 23.7961 11.4589 19.4194 8.76631Z" fill="#FFC100"/>
<path opacity="0.2" d="M19.4194 8.76631C15.047 6.07822 7.95409 6.07822 3.57742 8.76631C-0.799245 11.4544 -0.799245 15.8152 3.57742 18.4942C7.95409 21.1732 15.047 21.1823 19.4194 18.4942C23.7918 15.8061 23.7961 11.4589 19.4194 8.76631Z" fill="black"/>
<path d="M16.6564 10.5467C15.0437 9.7398 13.278 9.3396 11.4964 9.37718C9.71629 9.34063 7.95216 9.74079 6.34062 10.5467C4.87606 11.349 4.06714 12.446 4.06714 13.6382C4.06714 14.8304 4.87606 15.9047 6.34062 16.7207C7.95058 17.532 9.71559 17.934 11.4964 17.8947C13.2787 17.9347 15.0452 17.5327 16.6564 16.7207C18.121 15.9229 18.9299 14.8259 18.9299 13.6382C18.9299 12.4506 18.121 11.349 16.6564 10.5467Z" fill="#FFC100"/>
<path opacity="0.4" d="M16.6564 10.5467C15.0437 9.7398 13.278 9.3396 11.4964 9.37718C9.71629 9.34063 7.95216 9.74079 6.34062 10.5467C4.87606 11.349 4.06714 12.446 4.06714 13.6382C4.06714 14.8304 4.87606 15.9047 6.34062 16.7207C7.95058 17.532 9.71559 17.934 11.4964 17.8947C13.2787 17.9347 15.0452 17.5327 16.6564 16.7207C18.121 15.9229 18.9299 14.8259 18.9299 13.6382C18.9299 12.4506 18.121 11.349 16.6564 10.5467Z" fill="black"/>
<path d="M19.1769 9.21874C17.1333 7.95856 14.4085 7.26953 11.5135 7.26953C8.61838 7.26953 5.88083 7.95856 3.85002 9.21874C1.89159 10.42 0.814453 11.9884 0.814453 13.6384C0.814453 15.2885 1.87456 16.8524 3.82022 18.04C5.8638 19.2911 8.58858 19.9847 11.4837 19.9847C14.3787 19.9847 17.1205 19.2911 19.1471 18.04C21.1055 16.8342 22.1827 15.2658 22.1827 13.6203C22.1827 11.9748 21.1353 10.42 19.1769 9.21874ZM16.6565 16.7209C15.0452 17.5329 13.2787 17.9349 11.4964 17.8949C9.71561 17.9342 7.95059 17.5323 6.34064 16.7209C4.87607 15.9231 4.06716 14.8261 4.06716 13.6384C4.06716 12.4508 4.87607 11.3493 6.34064 10.5469C7.95218 9.74101 9.71631 9.34085 11.4964 9.3774C13.278 9.33983 15.0437 9.74002 16.6565 10.5469C18.121 11.3493 18.93 12.4463 18.93 13.6384C18.93 14.8306 18.121 15.9231 16.6565 16.7209Z" fill="#FFC100"/>
<path opacity="0.3" d="M19.1769 9.21874C17.1333 7.95856 14.4085 7.26953 11.5135 7.26953C8.61838 7.26953 5.88083 7.95856 3.85002 9.21874C1.89159 10.42 0.814453 11.9884 0.814453 13.6384C0.814453 15.2885 1.87456 16.8524 3.82022 18.04C5.8638 19.2911 8.58858 19.9847 11.4837 19.9847C14.3787 19.9847 17.1205 19.2911 19.1471 18.04C21.1055 16.8342 22.1827 15.2658 22.1827 13.6203C22.1827 11.9748 21.1353 10.42 19.1769 9.21874ZM16.6565 16.7209C15.0452 17.5329 13.2787 17.9349 11.4964 17.8949C9.71561 17.9342 7.95059 17.5323 6.34064 16.7209C4.87607 15.9231 4.06716 14.8261 4.06716 13.6384C4.06716 12.4508 4.87607 11.3493 6.34064 10.5469C7.95218 9.74101 9.71631 9.34085 11.4964 9.3774C13.278 9.33983 15.0437 9.74002 16.6565 10.5469C18.121 11.3493 18.93 12.4463 18.93 13.6384C18.93 14.8306 18.121 15.9231 16.6565 16.7209Z" fill="white"/>
<path opacity="0.2" d="M16.482 16.3582C19.2323 14.8532 19.2323 12.4144 16.482 10.9185C13.7317 9.42264 9.26984 9.41357 6.51526 10.9185C3.76069 12.4235 3.76494 14.8577 6.51526 16.3582C9.26558 17.8586 13.7317 17.8631 16.482 16.3582Z" fill="black"/>
<path d="M16.482 16.3582C19.2323 14.8532 19.2323 12.4144 16.482 10.9185C13.7317 9.42264 9.26984 9.41357 6.51526 10.9185C3.76069 12.4235 3.76494 14.8577 6.51526 16.3582C9.26558 17.8586 13.7317 17.8631 16.482 16.3582Z" fill="#FFC100"/>
<path opacity="0.45" d="M16.482 16.3582C19.2323 14.8532 19.2323 12.4144 16.482 10.9185C13.7317 9.42264 9.26984 9.41357 6.51526 10.9185C3.76069 12.4235 3.76494 14.8577 6.51526 16.3582C9.26558 17.8586 13.7317 17.8631 16.482 16.3582Z" fill="black"/>
<path d="M16.4819 11.9341C13.7273 10.4292 9.26975 10.4292 6.51517 11.9341C5.37843 12.5552 4.71426 13.3349 4.51416 14.1463C4.71426 14.9531 5.36565 15.7374 6.51517 16.3584C9.26975 17.8633 13.7529 17.8633 16.4819 16.3584C17.6186 15.7374 18.2828 14.9531 18.4829 14.1463C18.2828 13.3349 17.6271 12.5552 16.4819 11.9341Z" fill="#FFC100"/>
<path opacity="0.3" d="M16.4819 11.9341C13.7273 10.4292 9.26975 10.4292 6.51517 11.9341C5.37843 12.5552 4.71426 13.3349 4.51416 14.1463C4.71426 14.9531 5.36565 15.7374 6.51517 16.3584C9.26975 17.8633 13.7529 17.8633 16.4819 16.3584C17.6186 15.7374 18.2828 14.9531 18.4829 14.1463C18.2828 13.3349 17.6271 12.5552 16.4819 11.9341Z" fill="black"/>
<path d="M12.1647 10.9727V12.0696L11.8113 12.4685L11.1599 13.1938V12.0515L12.1647 10.9727Z" fill="#FFC100"/>
<path opacity="0.3" d="M12.1647 10.9727V12.0696L11.8113 12.4685L11.1599 13.1938V12.0515L12.1647 10.9727Z" fill="black"/>
<path d="M11.1602 12.0529V12.7011C10.8357 12.8333 10.5009 12.935 10.1597 13.0048C10.0189 13.0322 9.87466 13.0322 9.73391 13.0048C9.66269 12.9832 9.5941 12.9528 9.52955 12.9141C9.27836 12.7555 9.24005 12.5198 9.71263 12.2296C9.92528 12.0846 10.1663 11.9933 10.4172 11.9627C10.668 11.932 10.9222 11.9629 11.1602 12.0529Z" fill="#FFC100"/>
<path opacity="0.45" d="M11.1602 12.0529V12.7011C10.8357 12.8333 10.5009 12.935 10.1597 13.0048C10.0189 13.0322 9.87466 13.0322 9.73391 13.0048C9.66269 12.9832 9.5941 12.9528 9.52955 12.9141C9.27836 12.7555 9.24005 12.5198 9.71263 12.2296C9.92528 12.0846 10.1663 11.9933 10.4172 11.9627C10.668 11.932 10.9222 11.9629 11.1602 12.0529Z" fill="black"/>
<path d="M15.8389 15.1749V16.1223L14.7064 16.8158L13.8549 16.3036C12.8375 16.8068 11.6747 16.8622 10.6192 16.4577V15.5058L11.1301 14.9663L10.6192 15.1159C10.2008 15.2441 9.76265 15.2829 9.33007 15.23C8.89749 15.1771 8.47903 15.0336 8.0988 14.8077C7.59216 14.4994 7.358 14.1595 7.358 13.8059V12.8993L7.44741 12.4958L7.14087 12.3055V11.3535L7.99236 11.8703C7.82233 11.9778 7.67806 12.1259 7.57094 12.3029C7.46381 12.4799 7.39674 12.6809 7.37503 12.8902C7.37503 13.2347 7.62196 13.5656 8.11583 13.8693C9.21425 14.5448 10.3042 14.3226 11.3004 13.9827C12.2285 13.6563 12.9055 13.2801 13.4291 13.6064C13.7612 13.8149 13.659 14.0597 13.2886 14.2909C13.0467 14.4319 12.7784 14.514 12.503 14.5312C12.2277 14.5484 11.9522 14.5004 11.6964 14.3906L10.6277 15.5148C10.8194 15.5954 11.0174 15.6576 11.2195 15.7007C12.1126 15.8825 13.0367 15.7637 13.8634 15.3607L14.7149 15.8775L15.8389 15.1749Z" fill="#FFC100"/>
<path opacity="0.2" d="M7.37521 12.8736C7.37521 13.2181 7.62215 13.549 8.11601 13.8527C9.21444 14.5281 10.3043 14.306 11.3006 13.9661C12.2287 13.6397 12.9057 13.2634 13.4293 13.5898C13.7614 13.7983 13.6592 14.0431 13.2888 14.2743C13.0469 14.4153 12.7785 14.4973 12.5032 14.5146C12.2279 14.5318 11.9524 14.4838 11.6965 14.374L10.6279 15.4982C10.8196 15.5788 11.0176 15.641 11.2197 15.6841C12.1128 15.8659 13.0369 15.7471 13.8636 15.3441L14.7151 15.8609L15.8476 15.1673V16.1147L14.7151 16.8083L13.8636 16.296C12.8462 16.7993 11.6834 16.8546 10.6279 16.4501V15.4982L11.1388 14.9588L10.6279 15.1084C10.2095 15.2366 9.77135 15.2754 9.33877 15.2225C8.90619 15.1696 8.48773 15.026 8.1075 14.8001C7.60086 14.4919 7.3667 14.1519 7.3667 13.7983V12.8917L7.45611 12.4883" fill="black"/>
<path opacity="0.45" d="M7.15796 11.3354V12.2874L7.4645 12.4778C7.5942 12.2285 7.77456 12.0132 7.99242 11.8477L7.15796 11.3354Z" fill="black"/>
<path d="M15.6519 14.5543C15.6526 14.71 15.6236 14.8642 15.5667 15.0076L15.0005 14.6586C15.1707 14.5774 15.3189 14.4517 15.4313 14.2932C15.5437 14.1347 15.6166 13.9485 15.6434 13.752C15.6476 14.0058 15.6519 14.5271 15.6519 14.5543Z" fill="#FFC100"/>
<g opacity="0.3">
<path opacity="0.3" d="M15.6519 14.5543C15.6526 14.71 15.6236 14.8642 15.5667 15.0076L15.0005 14.6586C15.1707 14.5774 15.3189 14.4517 15.4313 14.2932C15.5437 14.1347 15.6166 13.9485 15.6434 13.752C15.6476 14.0058 15.6519 14.5271 15.6519 14.5543Z" fill="black"/>
</g>
<path d="M15.6474 15.0571L15.0003 14.6582C15.1917 14.5664 15.3543 14.4181 15.469 14.2309C15.5837 14.0437 15.6456 13.8254 15.6474 13.602C15.6495 13.5718 15.6495 13.5415 15.6474 13.5113C15.6066 13.305 15.5194 13.1123 15.3933 12.9497C15.2673 12.7871 15.1061 12.6594 14.9236 12.5775C14.4676 12.2953 13.9483 12.1496 13.4208 12.1559H13.2803H13.144H13.0291H12.978H12.8886C12.6433 12.1939 12.4002 12.2469 12.1606 12.3146L11.8157 12.4234L11.3431 12.5866L11.1643 12.6546C10.8398 12.7868 10.505 12.8884 10.1638 12.9583C9.94694 13.004 9.72186 12.9654 9.52944 12.8495C9.27825 12.6954 9.23993 12.4596 9.71251 12.165C9.92705 12.0223 10.1694 11.9337 10.4211 11.9062C10.6728 11.8787 10.927 11.913 11.1643 12.0063L12.1691 10.9275C11.172 10.5929 10.0946 10.6557 9.13776 11.1043L8.28626 10.592L7.14526 11.2947L7.99676 11.8069C7.82593 11.9139 7.68083 12.0618 7.57294 12.2388C7.46506 12.4158 7.39735 12.6171 7.37517 12.8268C7.37517 13.1713 7.61784 13.5022 8.11596 13.806C9.21439 14.4814 10.3043 14.2593 11.3005 13.9147C12.2287 13.5929 12.9014 13.2167 13.4293 13.543C13.7614 13.747 13.6592 13.9963 13.2888 14.2275C13.0473 14.3702 12.7786 14.4529 12.5029 14.4694C12.2271 14.4859 11.9515 14.4358 11.6965 14.3227L10.6279 15.456C10.819 15.5324 11.0155 15.5931 11.2154 15.6373C11.555 15.7156 11.9032 15.743 12.25 15.7189C12.8067 15.6792 13.3528 15.5366 13.8635 15.2973L14.715 15.8141L15.8433 15.1205L15.6474 15.0571Z" fill="#FFC100"/>
<g opacity="0.3">
<path opacity="0.3" d="M15.6474 15.0573L15.0003 14.6584C15.1917 14.5666 15.3543 14.4183 15.469 14.2311C15.5837 14.0439 15.6456 13.8257 15.6474 13.6022C15.6495 13.572 15.6495 13.5417 15.6474 13.5116C15.6066 13.3052 15.5194 13.1125 15.3933 12.9499C15.2673 12.7873 15.1061 12.6596 14.9236 12.5778C14.4676 12.2955 13.9483 12.1498 13.4208 12.1562H13.2803H13.144H13.0291H12.978H12.8886C12.6433 12.1942 12.4002 12.2471 12.1606 12.3148L11.8157 12.4236L11.3431 12.5868L11.1643 12.6548C10.8398 12.7871 10.505 12.8887 10.1638 12.9585C9.94694 13.0042 9.72186 12.9656 9.52944 12.8497C9.27825 12.6956 9.23993 12.4599 9.71251 12.1652C9.92705 12.0225 10.1694 11.934 10.4211 11.9065C10.6728 11.879 10.927 11.9132 11.1643 12.0066L12.1691 10.9277C11.172 10.5931 10.0946 10.656 9.13776 11.1045L8.28626 10.5923L7.14526 11.2949L7.99676 11.8071C7.82593 11.9141 7.68083 12.062 7.57294 12.239C7.46506 12.416 7.39735 12.6174 7.37517 12.8271C7.37517 13.1716 7.61784 13.5025 8.11596 13.8062C9.21439 14.4816 10.3043 14.2595 11.3005 13.915C12.2287 13.5931 12.9014 13.2169 13.4293 13.5433C13.7614 13.7473 13.6592 13.9966 13.2888 14.2278C13.0473 14.3705 12.7786 14.4532 12.5029 14.4697C12.2271 14.4862 11.9515 14.436 11.6965 14.323L10.6279 15.4562C10.819 15.5327 11.0155 15.5933 11.2154 15.6375C11.555 15.7158 11.9032 15.7433 12.25 15.7191C12.8067 15.6795 13.3528 15.5368 13.8635 15.2976L14.715 15.8143L15.8433 15.1208L15.6474 15.0573Z" fill="white"/>
</g>
<path d="M13.8718 15.3525V16.3045L14.7063 16.8167V15.8693L13.8718 15.3525Z" fill="#FFC100"/>
<path opacity="0.45" d="M13.8718 15.3525V16.3045L14.7063 16.8167V15.8693L13.8718 15.3525Z" fill="black"/>
<path opacity="0.5" d="M7.15796 11.3406L8.29896 10.6379L9.13342 11.1502L8.30322 10.783L7.15796 11.3406Z" fill="#F5F5F5"/>
<path opacity="0.5" d="M9.70801 12.2102C9.92254 12.0674 10.1649 11.9789 10.4166 11.9514C10.6683 11.9239 10.9225 11.9581 11.1598 12.0515L12.1646 10.9727L11.1598 11.9382C10.916 11.8487 10.6548 11.8267 10.4009 11.8742C10.1469 11.9218 9.90845 12.0374 9.70801 12.2102Z" fill="#F5F5F5"/>
<path opacity="0.5" d="M10.6365 15.5112C10.8276 15.5877 11.0241 15.6483 11.224 15.6925C11.5636 15.7708 11.9118 15.7982 12.2586 15.7741C11.7585 15.7784 11.263 15.6735 10.8025 15.4659L11.7051 14.3779L10.6365 15.5112Z" fill="#F5F5F5"/>
<path opacity="0.5" d="M13.8718 15.3518L14.7063 15.7553L15.8345 15.175L14.7063 15.8686L13.8718 15.3518Z" fill="#F5F5F5"/>
<path opacity="0.5" d="M3.90962 9.3774C6.88985 7.45993 11.4964 7.26953 11.4964 7.26953C8.58857 7.26953 5.8638 7.95856 3.83299 9.21874C1.87456 10.42 0.797418 11.9884 0.797418 13.6384C0.784645 13.6384 0.891082 11.3266 3.90962 9.3774Z" fill="#F5F5F5"/>
<path opacity="0.5" d="M10.6365 20.5016C13.7827 20.6512 17.0227 19.9849 19.4196 18.5071C21.923 16.9659 22.9959 14.8807 22.634 12.8726C22.634 12.8726 23.1023 16.1454 19.228 18.3847C15.3537 20.624 10.6365 20.5016 10.6365 20.5016Z" fill="#F5F5F5"/>
<path d="M23.6981 10.2205C23.0347 9.11546 22.1173 8.20896 21.0329 7.58685C16.6478 4.89423 9.53779 4.89423 5.18241 7.58685C4.09333 8.20708 3.17143 9.11374 2.50446 10.2205H1.8999V12.6593C1.98079 14.3501 3.06645 16.0319 5.17389 17.3238C9.5463 20.0164 16.6392 20.0164 21.0159 17.3238C23.1191 16.0319 24.2175 14.3501 24.2942 12.6593V10.2205H23.6981Z" fill="#FFC100"/>
<g opacity="0.25">
<path opacity="0.25" d="M23.6981 10.2205C23.0347 9.11546 22.1173 8.20896 21.0329 7.58685C16.6478 4.89423 9.53779 4.89423 5.18241 7.58685C4.09333 8.20708 3.17143 9.11374 2.50446 10.2205H1.8999V12.6593C1.98079 14.3501 3.06645 16.0319 5.17389 17.3238C9.5463 20.0164 16.6392 20.0164 21.0159 17.3238C23.1191 16.0319 24.2175 14.3501 24.2942 12.6593V10.2205H23.6981Z" fill="black"/>
</g>
<path opacity="0.1" d="M13.1013 5.57056C10.236 5.57056 7.36648 6.24145 5.18241 7.58776C4.09332 8.20799 3.17143 9.11465 2.50446 10.2214H1.8999V12.6602C1.98079 14.351 3.06645 16.0328 5.17389 17.3247C7.35797 18.6846 10.2275 19.3419 13.0928 19.3419L13.1013 5.57056Z" fill="black"/>
<path opacity="0.1" d="M6.98331 6.70801C6.36095 6.95781 5.75867 7.26101 5.18241 7.61461C4.09332 8.23485 3.17143 9.1415 2.50446 10.2483H1.8999V12.6871C1.98079 14.3779 3.06645 16.0596 5.17389 17.3516C5.75016 17.7052 6.35244 18.0084 6.9748 18.2582L6.98331 6.70801Z" fill="black"/>
<path opacity="0.5" d="M19.2195 6.70801C19.8429 6.95869 20.4465 7.26185 21.0246 7.61461C22.1122 8.23548 23.0325 9.14208 23.6983 10.2483H24.3029V12.6871C24.222 14.3779 23.1278 16.0596 21.0246 17.3516C20.4465 17.7043 19.8429 18.0075 19.2195 18.2582V6.70801Z" fill="#FFC100"/>
<path d="M21.0328 5.34712C16.6562 2.65903 9.56323 2.65903 5.19082 5.34712C0.818405 8.0352 0.814148 12.396 5.19082 15.0886C9.56749 17.7812 16.6562 17.7767 21.0328 15.0886C25.4095 12.4005 25.3967 8.03973 21.0328 5.34712Z" fill="#FFC100"/>
<path opacity="0.2" d="M21.0328 5.34712C16.6562 2.65903 9.56323 2.65903 5.19082 5.34712C0.818405 8.0352 0.814148 12.396 5.19082 15.0886C9.56749 17.7812 16.6562 17.7767 21.0328 15.0886C25.4095 12.4005 25.3967 8.03973 21.0328 5.34712Z" fill="black"/>
<path d="M18.2613 7.1338C16.6483 6.32784 14.8827 5.92767 13.1012 5.96427C11.3211 5.92723 9.55686 6.32743 7.94547 7.1338C6.47664 7.93614 5.66772 9.03313 5.66772 10.2208C5.66772 11.4084 6.47664 12.51 7.94547 13.3078C9.55582 14.1179 11.3206 14.5197 13.1012 14.4818C14.8833 14.5191 16.6492 14.1173 18.2613 13.3078C19.7259 12.51 20.5348 11.413 20.5348 10.2208C20.5348 9.0286 19.7259 7.93614 18.2613 7.1338Z" fill="#FFC100"/>
<path opacity="0.4" d="M18.2613 7.1338C16.6483 6.32784 14.8827 5.92767 13.1012 5.96427C11.3211 5.92723 9.55686 6.32743 7.94547 7.1338C6.47664 7.93614 5.66772 9.03313 5.66772 10.2208C5.66772 11.4084 6.47664 12.51 7.94547 13.3078C9.55582 14.1179 11.3206 14.5197 13.1012 14.4818C14.8833 14.5191 16.6492 14.1173 18.2613 13.3078C19.7259 12.51 20.5348 11.413 20.5348 10.2208C20.5348 9.0286 19.7259 7.93614 18.2613 7.1338Z" fill="black"/>
<path d="M20.7821 5.80125C18.7385 4.5456 16.0095 3.85205 13.1187 3.85205C10.2279 3.85205 7.48606 4.5456 5.45525 5.80125C3.49682 7.00703 2.41968 8.57546 2.41968 10.2209C2.41968 11.8664 3.49682 13.4394 5.45525 14.6452C7.49883 15.8963 10.2236 16.5898 13.1187 16.5898C16.0138 16.5898 18.7556 15.8963 20.7821 14.6452C22.7363 13.4394 23.8177 11.8664 23.8177 10.2209C23.8177 8.57546 22.7363 7.00703 20.7821 5.80125ZM18.2617 13.3079C16.6496 14.1175 14.8837 14.5193 13.1016 14.482C11.321 14.5199 9.55621 14.118 7.94586 13.3079C6.47704 12.5101 5.66812 11.4131 5.66812 10.2209C5.66812 9.02876 6.47704 7.95443 7.94586 7.13396C9.55726 6.32759 11.3215 5.92739 13.1016 5.96443C14.8831 5.92783 16.6487 6.328 18.2617 7.13396C19.7263 7.9363 20.5352 9.03329 20.5352 10.2209C20.5352 11.4086 19.7263 12.5101 18.2617 13.3079Z" fill="#FFC100"/>
<path opacity="0.3" d="M20.7821 5.80125C18.7385 4.5456 16.0095 3.85205 13.1187 3.85205C10.2279 3.85205 7.48606 4.5456 5.45525 5.80125C3.49682 7.00703 2.41968 8.57546 2.41968 10.2209C2.41968 11.8664 3.49682 13.4394 5.45525 14.6452C7.49883 15.8963 10.2236 16.5898 13.1187 16.5898C16.0138 16.5898 18.7556 15.8963 20.7821 14.6452C22.7363 13.4394 23.8177 11.8664 23.8177 10.2209C23.8177 8.57546 22.7363 7.00703 20.7821 5.80125ZM18.2617 13.3079C16.6496 14.1175 14.8837 14.5193 13.1016 14.482C11.321 14.5199 9.55621 14.118 7.94586 13.3079C6.47704 12.5101 5.66812 11.4131 5.66812 10.2209C5.66812 9.02876 6.47704 7.95443 7.94586 7.13396C9.55726 6.32759 11.3215 5.92739 13.1016 5.96443C14.8831 5.92783 16.6487 6.328 18.2617 7.13396C19.7263 7.9363 20.5352 9.03329 20.5352 10.2209C20.5352 11.4086 19.7263 12.5101 18.2617 13.3079Z" fill="white"/>
<path opacity="0.2" d="M18.0828 12.9451C20.8374 11.4401 20.8374 9.00135 18.0828 7.50545C15.3282 6.00955 10.8707 6.00049 8.12036 7.50545C5.37004 9.01042 5.37004 11.4447 8.12036 12.9451C10.8707 14.4455 15.3325 14.4455 18.0828 12.9451Z" fill="black"/>
<path d="M18.0828 12.9451C20.8374 11.4401 20.8374 9.00135 18.0828 7.50545C15.3282 6.00955 10.8707 6.00049 8.12036 7.50545C5.37004 9.01042 5.37004 11.4447 8.12036 12.9451C10.8707 14.4455 15.3325 14.4455 18.0828 12.9451Z" fill="#FFC100"/>
<path opacity="0.45" d="M18.0828 12.9451C20.8374 11.4401 20.8374 9.00135 18.0828 7.50545C15.3282 6.00955 10.8707 6.00049 8.12036 7.50545C5.37004 9.01042 5.37004 11.4447 8.12036 12.9451C10.8707 14.4455 15.3325 14.4455 18.0828 12.9451Z" fill="black"/>
<path d="M18.0829 8.5213C15.3325 7.01634 10.8707 7.01634 8.12039 8.5213C6.98365 9.14233 6.31523 9.92201 6.11938 10.7334C6.31523 11.5403 6.97088 12.3245 8.12039 12.9455C10.8707 14.446 15.3325 14.446 18.0829 12.9455C19.2239 12.3245 19.888 11.5403 20.0839 10.7334C19.888 9.92201 19.2239 9.14233 18.0829 8.5213Z" fill="#FFC100"/>
<path opacity="0.3" d="M18.0829 8.5213C15.3325 7.01634 10.8707 7.01634 8.12039 8.5213C6.98365 9.14233 6.31523 9.92201 6.11938 10.7334C6.31523 11.5403 6.97088 12.3245 8.12039 12.9455C10.8707 14.446 15.3325 14.446 18.0829 12.9455C19.2239 12.3245 19.888 11.5403 20.0839 10.7334C19.888 9.92201 19.2239 9.14233 18.0829 8.5213Z" fill="black"/>
<path d="M13.7699 7.55981V8.6568L13.4165 9.05571L12.7651 9.78099V8.63868L13.7699 7.55981Z" fill="#FFC100"/>
<path opacity="0.3" d="M13.7699 7.55981V8.6568L13.4165 9.05571L12.7651 9.78099V8.63868L13.7699 7.55981Z" fill="black"/>
<path d="M12.7648 8.6345V9.28726C12.4384 9.41808 12.1023 9.51967 11.7601 9.59096C11.6193 9.61816 11.4751 9.61816 11.3343 9.59096C11.2638 9.56741 11.1954 9.53707 11.13 9.50031C10.883 9.34165 10.8405 9.10593 11.3173 8.81582C11.5296 8.67005 11.7704 8.57793 12.0213 8.5465C12.2722 8.51507 12.5265 8.54517 12.7648 8.6345Z" fill="#FFC100"/>
<path opacity="0.45" d="M12.7648 8.6345V9.28726C12.4384 9.41808 12.1023 9.51967 11.7601 9.59096C11.6193 9.61816 11.4751 9.61816 11.3343 9.59096C11.2638 9.56741 11.1954 9.53707 11.13 9.50031C10.883 9.34165 10.8405 9.10593 11.3173 8.81582C11.5296 8.67005 11.7704 8.57793 12.0213 8.5465C12.2722 8.51507 12.5265 8.54517 12.7648 8.6345Z" fill="black"/>
<path d="M17.4397 11.762V12.7094L16.3115 13.403L15.46 12.8907C14.4407 13.3923 13.2772 13.4477 12.22 13.0449V12.0929L12.7352 11.5535L12.22 11.7031C11.8016 11.8311 11.3635 11.8697 10.9309 11.8168C10.4984 11.7639 10.0799 11.6205 9.69963 11.3948C9.19299 11.0866 8.95883 10.7421 8.95883 10.393V9.48644L9.05249 9.08299L8.7417 8.89261V7.94067L9.59319 8.45743C9.42236 8.56443 9.27726 8.7123 9.16938 8.88932C9.06149 9.06634 8.99378 9.26766 8.9716 9.47736C8.9716 9.82187 9.21853 10.1528 9.7124 10.4565C10.8108 11.1319 11.9007 10.9098 12.9012 10.5653C13.8251 10.2435 14.502 9.86721 15.03 10.1936C15.3621 10.3976 15.2599 10.6469 14.8895 10.8781C14.6468 11.0191 14.3777 11.1012 14.1017 11.1185C13.8257 11.1357 13.5495 11.0877 13.2929 10.9778L12.2243 12.102C12.4168 12.1799 12.6147 12.2421 12.8161 12.2878C13.7106 12.4679 14.6355 12.3492 15.4642 11.9479L16.3157 12.4646L17.4397 11.762Z" fill="#FFC100"/>
<path opacity="0.2" d="M8.9758 9.45904C8.9758 9.80355 9.22273 10.1345 9.7166 10.4382C10.815 11.1136 11.9049 10.8915 12.9054 10.547C13.8293 10.2251 14.5062 9.84887 15.0342 10.1753C15.3662 10.3792 15.2641 10.6286 14.8937 10.8597C14.651 11.0008 14.3819 11.0829 14.1059 11.1001C13.8299 11.1174 13.5537 11.0693 13.2971 10.9595L12.2285 12.0837C12.421 12.1616 12.6189 12.2237 12.8203 12.2695C13.7148 12.4496 14.6397 12.3308 15.4684 11.9295L16.3199 12.4463L17.4481 11.7528V12.7002L16.3199 13.3937L15.4684 12.8815C14.4492 13.383 13.2857 13.4384 12.2285 13.0356V12.0837L12.7437 11.5442L12.2285 11.6938C11.81 11.8218 11.3719 11.8604 10.9394 11.8075C10.5069 11.7546 10.0884 11.6112 9.70808 11.3856C9.20145 11.0773 8.96729 10.7328 8.96729 10.3838V9.47716L9.06095 9.07373" fill="black"/>
<path opacity="0.45" d="M8.75903 7.92285V8.87479L9.06983 9.06518C9.20257 8.81682 9.3841 8.60189 9.60201 8.43509L8.75903 7.92285Z" fill="black"/>
<path d="M17.2526 11.1418C17.2556 11.2973 17.2281 11.4517 17.1717 11.5951L16.6055 11.2416C16.7749 11.1598 16.9222 11.0338 17.0338 10.8753C17.1455 10.7169 17.2178 10.531 17.2441 10.335C17.2483 10.5933 17.2526 11.1146 17.2526 11.1418Z" fill="#FFC100"/>
<g opacity="0.3">
<path opacity="0.3" d="M17.2524 11.1411C17.2554 11.2966 17.2278 11.451 17.1715 11.5944L16.6052 11.2408C16.7746 11.159 16.922 11.0331 17.0336 10.8746C17.1452 10.7162 17.2175 10.5303 17.2438 10.3342C17.2481 10.5926 17.2524 11.1139 17.2524 11.1411Z" fill="black"/>
</g>
<path d="M17.2525 11.6439L16.6054 11.2405C16.7968 11.1487 16.9594 11.0004 17.0741 10.8132C17.1888 10.626 17.2507 10.4078 17.2525 10.1843C17.2525 10.1526 17.2525 10.1208 17.2525 10.0936C17.2117 9.88732 17.1245 9.69462 16.9985 9.532C16.8724 9.36938 16.7113 9.24168 16.5288 9.15983C16.0712 8.88183 15.5527 8.73793 15.0259 8.74278H14.8811H14.7491C14.7094 8.74056 14.6696 8.74056 14.6299 8.74278H14.5831C14.5533 8.74028 14.5235 8.74028 14.4937 8.74278C14.2466 8.7786 14.002 8.8316 13.7614 8.90144C13.6465 8.93317 13.5315 8.96943 13.4208 9.01023L12.9482 9.17343L12.7694 9.23688C12.445 9.37404 12.1084 9.47581 11.7647 9.5406C11.6245 9.5746 11.479 9.5746 11.3389 9.5406C11.2692 9.52056 11.202 9.49164 11.1388 9.45447C10.8876 9.30035 10.8451 9.06463 11.3219 8.76998C11.5364 8.62723 11.7788 8.53871 12.0305 8.51121C12.2821 8.48371 12.5364 8.51796 12.7737 8.61134L13.7784 7.53247C12.7816 7.19535 11.7034 7.25823 10.7471 7.70926L9.89564 7.19702L8.75464 7.89511L9.60613 8.41188C9.4353 8.51888 9.29021 8.66673 9.18232 8.84376C9.07444 9.02078 9.00672 9.22211 8.98454 9.43181C8.98454 9.77632 9.23147 10.1072 9.72534 10.4109C10.828 11.0864 11.9179 10.8642 12.9142 10.5197C13.838 10.1979 14.515 9.82165 15.0429 10.148C15.3792 10.352 15.2771 10.6013 14.9067 10.8325C14.664 10.9741 14.3948 11.0561 14.1185 11.0725C13.8423 11.089 13.5661 11.0395 13.3101 10.9277L12.2415 12.0564C12.4342 12.1337 12.632 12.1959 12.8333 12.2423C13.1718 12.3181 13.5183 12.3456 13.8636 12.3239C14.4205 12.2848 14.9666 12.1421 15.4772 11.9023L16.3287 12.4191L17.4569 11.7255L17.2525 11.6439Z" fill="#FFC100"/>
<g opacity="0.3">
<path opacity="0.3" d="M17.2525 11.6439L16.6054 11.2405C16.7968 11.1487 16.9594 11.0004 17.0741 10.8132C17.1888 10.626 17.2507 10.4078 17.2525 10.1843C17.2525 10.1526 17.2525 10.1208 17.2525 10.0936C17.2117 9.88732 17.1245 9.69462 16.9985 9.532C16.8724 9.36938 16.7113 9.24168 16.5288 9.15983C16.0712 8.88183 15.5527 8.73793 15.0259 8.74278H14.8811H14.7491C14.7094 8.74056 14.6696 8.74056 14.6299 8.74278H14.5831C14.5533 8.74028 14.5235 8.74028 14.4937 8.74278C14.2466 8.7786 14.002 8.8316 13.7614 8.90144C13.6465 8.93317 13.5315 8.96943 13.4208 9.01023L12.9482 9.17343L12.7694 9.23688C12.445 9.37404 12.1084 9.47581 11.7647 9.5406C11.6245 9.5746 11.479 9.5746 11.3389 9.5406C11.2692 9.52056 11.202 9.49164 11.1388 9.45447C10.8876 9.30035 10.8451 9.06463 11.3219 8.76998C11.5364 8.62723 11.7788 8.53871 12.0305 8.51121C12.2821 8.48371 12.5364 8.51796 12.7737 8.61134L13.7784 7.53247C12.7816 7.19535 11.7034 7.25823 10.7471 7.70926L9.89564 7.19702L8.75464 7.89511L9.60613 8.41188C9.4353 8.51888 9.29021 8.66673 9.18232 8.84376C9.07444 9.02078 9.00672 9.22211 8.98454 9.43181C8.98454 9.77632 9.23147 10.1072 9.72534 10.4109C10.828 11.0864 11.9179 10.8642 12.9142 10.5197C13.838 10.1979 14.515 9.82165 15.0429 10.148C15.3792 10.352 15.2771 10.6013 14.9067 10.8325C14.664 10.9741 14.3948 11.0561 14.1185 11.0725C13.8423 11.089 13.5661 11.0395 13.3101 10.9277L12.2415 12.0564C12.4342 12.1337 12.632 12.1959 12.8333 12.2423C13.1718 12.3181 13.5183 12.3456 13.8636 12.3239C14.4205 12.2848 14.9666 12.1421 15.4772 11.9023L16.3287 12.4191L17.4569 11.7255L17.2525 11.6439Z" fill="white"/>
</g>
<path d="M15.4771 11.939V12.8909L16.3115 13.4031V12.4557L15.4771 11.939Z" fill="#FFC100"/>
<path opacity="0.45" d="M15.4771 11.939V12.8909L16.3115 13.4031V12.4557L15.4771 11.939Z" fill="black"/>
<path opacity="0.5" d="M8.75903 7.92796L9.90003 7.22534L10.7388 7.73756L9.90855 7.36586L8.75903 7.92796Z" fill="#F5F5F5"/>
<path opacity="0.5" d="M11.313 8.79732C11.5275 8.65457 11.7699 8.56605 12.0216 8.53855C12.2733 8.51105 12.5275 8.5453 12.7648 8.63868L13.7695 7.55981L12.7648 8.52081C12.5206 8.43191 12.2593 8.41064 12.0053 8.45902C11.7513 8.50739 11.513 8.62381 11.313 8.79732Z" fill="#F5F5F5"/>
<path opacity="0.5" d="M12.2371 12.0938C12.4298 12.1711 12.6276 12.2333 12.8288 12.2797C13.1674 12.3555 13.5138 12.3829 13.8592 12.3613C13.3605 12.3657 12.8663 12.2608 12.4074 12.053L13.3057 10.9651L12.2371 12.0938Z" fill="#F5F5F5"/>
<path opacity="0.5" d="M15.4771 11.939L16.3115 12.3424L17.4397 11.7622L16.3115 12.4558L15.4771 11.939Z" fill="#F5F5F5"/>
<path opacity="0.5" d="M5.51036 5.96443C8.49059 4.04243 13.1014 3.85205 13.1014 3.85205C10.1936 3.85205 7.46879 4.5456 5.43799 5.80125C3.47955 7.00703 2.40242 8.57546 2.40242 10.2209C2.38964 10.2209 2.49182 7.91363 5.51036 5.96443Z" fill="#F5F5F5"/>
<path opacity="0.5" d="M12.2371 17.089C15.3833 17.2386 18.6233 16.5723 21.0245 15.0945C23.5279 13.5533 24.5965 11.4681 24.2346 9.45996C24.2346 9.45996 24.7029 12.7328 20.8286 14.9676C16.9543 17.2024 12.2371 17.089 12.2371 17.089Z" fill="#F5F5F5"/>
<path d="M22.604 6.88438C21.937 5.77759 21.0151 4.87092 19.926 4.25068C15.5536 1.5626 8.46069 1.5626 4.08402 4.25068C2.99494 4.87092 2.07304 5.77759 1.40607 6.88438H0.801514V9.32314C0.882405 11.0185 1.97231 12.6957 4.0755 13.9922C8.45217 16.6802 15.5451 16.6802 19.9175 13.9922C22.0207 12.6957 23.1191 11.0185 23.2 9.32314V6.88438H22.604Z" fill="#FFC100"/>
<g opacity="0.25">
<path opacity="0.25" d="M22.604 6.88438C21.937 5.77759 21.0151 4.87092 19.926 4.25068C15.5536 1.5626 8.46069 1.5626 4.08402 4.25068C2.99494 4.87092 2.07304 5.77759 1.40607 6.88438H0.801514V9.32314C0.882405 11.0185 1.97231 12.6957 4.0755 13.9922C8.45217 16.6802 15.5451 16.6802 19.9175 13.9922C22.0207 12.6957 23.1191 11.0185 23.2 9.32314V6.88438H22.604Z" fill="black"/>
</g>
<path opacity="0.1" d="M12.0072 2.23291C9.13762 2.23291 6.27235 2.90379 4.08402 4.2501C2.99494 4.87033 2.07304 5.777 1.40607 6.8838H0.801514V9.32256C0.882405 11.0179 1.97231 12.6951 4.0755 13.9916C6.26384 15.3515 9.12911 16.0088 11.9986 16.0042L12.0072 2.23291Z" fill="black"/>
<path opacity="0.1" d="M5.88492 3.35376C5.26214 3.6025 4.65978 3.90573 4.08402 4.26036C2.99494 4.8806 2.07304 5.78726 1.40607 6.89405H0.801514V9.33282C0.882405 11.0282 1.97231 12.7054 4.0755 14.0018C4.65305 14.3528 5.25514 14.6559 5.87641 14.9084L5.88492 3.35376Z" fill="black"/>
<path opacity="0.5" d="M18.1252 3.35376C18.748 3.6025 19.3504 3.90573 19.9262 4.26036C21.0152 4.8806 21.9371 5.78726 22.6041 6.89405H23.2087V9.33282C23.1278 11.0282 22.0293 12.7054 19.9262 14.0018C19.3486 14.3528 18.7465 14.6559 18.1252 14.9084V3.35376Z" fill="#FFC100"/>
<path d="M19.926 2.01606C15.5536 -0.672021 8.46069 -0.672021 4.08402 2.01606C-0.292654 4.70415 -0.292654 9.06946 4.08402 11.7575C8.46069 14.4456 15.5536 14.4456 19.926 11.7575C24.2984 9.06946 24.3027 4.70868 19.926 2.01606Z" fill="#FFC100"/>
<path opacity="0.2" d="M19.926 2.01606C15.5536 -0.672021 8.46069 -0.672021 4.08402 2.01606C-0.292654 4.70415 -0.292654 9.06946 4.08402 11.7575C8.46069 14.4456 15.5536 14.4456 19.926 11.7575C24.2984 9.06946 24.3027 4.70868 19.926 2.01606Z" fill="black"/>
<path d="M17.163 3.79694C15.5503 2.99004 13.7846 2.58985 12.003 2.62742C10.2229 2.59087 8.45876 2.99104 6.84721 3.79694C5.38265 4.59928 4.57373 5.69628 4.57373 6.88846C4.57373 8.08065 5.38265 9.15498 6.84721 9.97545C8.45772 10.7851 10.2223 11.1869 12.003 11.1495C13.7851 11.188 15.5513 10.7861 17.163 9.97545C18.6276 9.17311 19.4365 8.07612 19.4365 6.88846C19.4365 5.70081 18.6276 4.59928 17.163 3.79694Z" fill="#FFC100"/>
<path opacity="0.4" d="M17.163 3.79694C15.5503 2.99004 13.7846 2.58985 12.003 2.62742C10.2229 2.59087 8.45876 2.99104 6.84721 3.79694C5.38265 4.59928 4.57373 5.69628 4.57373 6.88846C4.57373 8.08065 5.38265 9.15498 6.84721 9.97545C8.45772 10.7851 10.2223 11.1869 12.003 11.1495C13.7851 11.188 15.5513 10.7861 17.163 9.97545C18.6276 9.17311 19.4365 8.07612 19.4365 6.88846C19.4365 5.70081 18.6276 4.59928 17.163 3.79694Z" fill="black"/>
<path d="M19.6832 2.47019C17.6396 1.21454 14.9149 0.520996 12.0198 0.520996C9.12473 0.520996 6.38718 1.21454 4.35637 2.47019C2.39794 3.67144 1.3208 5.23987 1.3208 6.88989C1.3208 8.53991 2.39794 10.1038 4.35637 11.3096C6.39995 12.5607 9.12473 13.2543 12.0198 13.2543C14.9149 13.2543 17.6567 12.5607 19.6832 11.3096C21.6417 10.1038 22.7358 8.52178 22.7358 6.88989C22.7358 5.258 21.6417 3.67144 19.6832 2.47019ZM17.1628 9.97688C15.5511 10.7875 13.7849 11.1894 12.0028 11.1509C10.2221 11.1884 8.45749 10.7865 6.84698 9.97688C5.38242 9.17454 4.5735 8.07755 4.5735 6.88989C4.5735 5.70224 5.38242 4.62338 6.84698 3.79837C8.45853 2.99247 10.2227 2.5923 12.0028 2.62885C13.7843 2.59128 15.5501 2.99147 17.1628 3.79837C18.6274 4.60071 19.4363 5.69771 19.4363 6.88989C19.4363 8.08208 18.6274 9.17454 17.1628 9.97688Z" fill="#FFC100"/>
<path opacity="0.3" d="M19.6832 2.47019C17.6396 1.21454 14.9149 0.520996 12.0198 0.520996C9.12473 0.520996 6.38718 1.21454 4.35637 2.47019C2.39794 3.67144 1.3208 5.23987 1.3208 6.88989C1.3208 8.53991 2.39794 10.1038 4.35637 11.3096C6.39995 12.5607 9.12473 13.2543 12.0198 13.2543C14.9149 13.2543 17.6567 12.5607 19.6832 11.3096C21.6417 10.1038 22.7358 8.52178 22.7358 6.88989C22.7358 5.258 21.6417 3.67144 19.6832 2.47019ZM17.1628 9.97688C15.5511 10.7875 13.7849 11.1894 12.0028 11.1509C10.2221 11.1884 8.45749 10.7865 6.84698 9.97688C5.38242 9.17454 4.5735 8.07755 4.5735 6.88989C4.5735 5.70224 5.38242 4.62338 6.84698 3.79837C8.45853 2.99247 10.2227 2.5923 12.0028 2.62885C13.7843 2.59128 15.5501 2.99147 17.1628 3.79837C18.6274 4.60071 19.4363 5.69771 19.4363 6.88989C19.4363 8.08208 18.6274 9.17454 17.1628 9.97688Z" fill="white"/>
<path opacity="0.2" d="M16.9883 9.60962C19.7387 8.10466 19.7387 5.67042 16.9883 4.16999C14.238 2.66956 9.77619 2.66503 7.02161 4.16999C4.26703 5.67496 4.27129 8.10919 7.02161 9.60962C9.77193 11.1101 14.221 11.1146 16.9883 9.60962Z" fill="black"/>
<path d="M16.9883 9.60962C19.7387 8.10466 19.7387 5.67042 16.9883 4.16999C14.238 2.66956 9.77619 2.66503 7.02161 4.16999C4.26703 5.67496 4.27129 8.10919 7.02161 9.60962C9.77193 11.1101 14.221 11.1146 16.9883 9.60962Z" fill="#FFC100"/>
<path opacity="0.45" d="M16.9883 9.60962C19.7387 8.10466 19.7387 5.67042 16.9883 4.16999C14.238 2.66956 9.77619 2.66503 7.02161 4.16999C4.26703 5.67496 4.27129 8.10919 7.02161 9.60962C9.77193 11.1101 14.221 11.1146 16.9883 9.60962Z" fill="black"/>
<path d="M16.9885 5.18414C14.2339 3.67918 9.77634 3.67918 7.02176 5.18414C5.88502 5.80517 5.22085 6.58484 5.02075 7.39625C5.22085 8.20313 5.87224 8.98734 7.02176 9.60837C9.77634 11.1133 14.2382 11.1133 16.9885 9.60837C18.1252 8.98734 18.7894 8.20313 18.9895 7.39625C18.7894 6.58937 18.1252 5.80063 16.9885 5.18414Z" fill="#FFC100"/>
<path opacity="0.3" d="M16.9885 5.18414C14.2339 3.67918 9.77634 3.67918 7.02176 5.18414C5.88502 5.80517 5.22085 6.58484 5.02075 7.39625C5.22085 8.20313 5.87224 8.98734 7.02176 9.60837C9.77634 11.1133 14.2382 11.1133 16.9885 9.60837C18.1252 8.98734 18.7894 8.20313 18.9895 7.39625C18.7894 6.58937 18.1252 5.80063 16.9885 5.18414Z" fill="black"/>
<path d="M12.6713 4.22314V5.32014L12.3179 5.71905L11.6665 6.44886V5.30201L12.6713 4.22314Z" fill="#FFC100"/>
<path opacity="0.3" d="M12.6713 4.22314V5.32014L12.3179 5.71905L11.6665 6.44886V5.30201L12.6713 4.22314Z" fill="black"/>
<path d="M11.6665 5.30286V5.95108C11.342 6.08332 11.0072 6.18496 10.666 6.25479C10.5257 6.28662 10.3806 6.28662 10.2403 6.25479C10.169 6.2332 10.1005 6.20277 10.0359 6.16413C9.78471 6.00547 9.74639 5.7743 10.219 5.47965C10.4316 5.33463 10.6726 5.2433 10.9235 5.21266C11.1744 5.18202 11.4285 5.21287 11.6665 5.30286Z" fill="#FFC100"/>
<path opacity="0.45" d="M11.6665 5.30286V5.95108C11.342 6.08332 11.0072 6.18496 10.666 6.25479C10.5257 6.28662 10.3806 6.28662 10.2403 6.25479C10.169 6.2332 10.1005 6.20277 10.0359 6.16413C9.78471 6.00547 9.74639 5.7743 10.219 5.47965C10.4316 5.33463 10.6726 5.2433 10.9235 5.21266C11.1744 5.18202 11.4285 5.21287 11.6665 5.30286Z" fill="black"/>
<path d="M16.3498 8.42643V9.37383L15.2174 10.0674L14.3659 9.55515C13.3485 10.0584 12.1857 10.1138 11.1302 9.70927V8.76187L11.6454 8.2179L11.1302 8.3675C10.7118 8.49573 10.2736 8.53451 9.84106 8.4816C9.40848 8.4287 8.99001 8.28516 8.60978 8.05926C8.10315 7.75101 7.86899 7.41103 7.86899 7.05745V6.15084L7.95839 5.74741L7.65186 5.55702V4.60962L8.50335 5.12185C8.33331 5.22937 8.18905 5.37746 8.08192 5.55445C7.97479 5.73144 7.90773 5.9325 7.88602 6.14178C7.88602 6.48629 8.13295 6.81721 8.62681 7.12092C9.72524 7.79634 10.8151 7.57422 11.8114 7.23424C12.7395 6.9124 13.4165 6.53162 13.9401 6.86253C14.2722 7.06652 14.17 7.31584 13.7996 7.54249C13.558 7.68437 13.2896 7.76696 13.0141 7.78422C12.7386 7.80147 12.463 7.75296 12.2073 7.64221L11.1387 8.77093C11.3311 8.84803 11.529 8.90868 11.7305 8.95226C12.6232 9.1334 13.5467 9.01623 14.3744 8.61681L15.2259 9.12905L16.3498 8.42643Z" fill="#FFC100"/>
<path opacity="0.2" d="M7.88191 6.12282C7.88191 6.46733 8.12884 6.79824 8.62271 7.10195C9.72114 7.77737 10.811 7.55525 11.8073 7.21528C12.7354 6.89343 13.4124 6.51266 13.936 6.84357C14.2681 7.04755 14.1659 7.29687 13.7955 7.52352C13.5539 7.66541 13.2855 7.748 13.01 7.76525C12.7345 7.7825 12.4589 7.73399 12.2032 7.62325L11.1346 8.75198C11.327 8.82908 11.5249 8.88971 11.7264 8.9333C12.6191 9.11443 13.5426 8.99727 14.3703 8.59786L15.2218 9.11008L16.35 8.4256V9.373L15.2175 10.0666L14.366 9.55432C13.3487 10.0576 12.1859 10.1129 11.1304 9.70844V8.76104L11.6455 8.21707L11.1304 8.36667C10.7119 8.4949 10.2738 8.53367 9.84121 8.48077C9.40863 8.42787 8.99017 8.28433 8.60994 8.05843C8.1033 7.75018 7.86914 7.4102 7.86914 7.05662V6.15001L7.95855 5.74658" fill="black"/>
<path opacity="0.45" d="M7.66455 4.59131V5.53872L7.97109 5.7291C8.10194 5.4807 8.2821 5.26568 8.49901 5.09902L7.66455 4.59131Z" fill="black"/>
<path d="M16.1582 7.80406C16.1592 7.95978 16.1303 8.11406 16.073 8.25737L15.4983 7.90831C15.6685 7.82711 15.8167 7.70142 15.9291 7.54292C16.0415 7.38443 16.1144 7.19826 16.1412 7.00171C16.1539 7.25556 16.1582 7.77687 16.1582 7.80406Z" fill="#FFC100"/>
<g opacity="0.3">
<path opacity="0.3" d="M16.1582 7.80431C16.1592 7.96002 16.1303 8.1143 16.073 8.25761L15.4983 7.90856C15.6685 7.82735 15.8167 7.70167 15.9291 7.54317C16.0415 7.38467 16.1144 7.1985 16.1412 7.00195C16.1539 7.2558 16.1582 7.77711 16.1582 7.80431Z" fill="black"/>
</g>
<path d="M16.1539 8.30739L15.4982 7.90849C15.6889 7.817 15.8512 7.66943 15.9658 7.48313C16.0804 7.29683 16.1427 7.07953 16.1454 6.85682C16.1476 6.82513 16.1476 6.79332 16.1454 6.76163C16.1045 6.55532 16.0173 6.36262 15.8913 6.2C15.7652 6.03738 15.6041 5.90968 15.4216 5.82783C14.964 5.54984 14.4455 5.40594 13.9187 5.4108H13.7952H13.659H13.544H13.493C13.4632 5.4086 13.4333 5.4086 13.4035 5.4108C13.1582 5.4488 12.9151 5.50176 12.6755 5.56944L12.3307 5.67825L11.8581 5.84143L11.6793 5.90942C11.3548 6.04167 11.02 6.1433 10.6788 6.21314C10.5382 6.2427 10.3936 6.2427 10.253 6.21314C10.1815 6.19252 10.1128 6.16203 10.0487 6.12247C9.79748 5.96835 9.75916 5.73264 10.2317 5.438C10.4458 5.30176 10.6861 5.21876 10.9345 5.19521C11.1829 5.17167 11.4332 5.20817 11.6665 5.302L12.6713 4.22313C11.6741 3.88854 10.5968 3.95137 9.63995 4.39993L8.78846 3.8877L7.64746 4.59031L8.49895 5.10254C8.32812 5.20954 8.18303 5.35741 8.07514 5.53443C7.96726 5.71145 7.89954 5.91277 7.87736 6.12247C7.87736 6.46698 8.12004 6.7979 8.61816 7.10161C9.71659 7.77703 10.8065 7.55491 11.8027 7.2104C12.7309 6.88855 13.4035 6.51232 13.9315 6.8387C14.2636 7.04722 14.1614 7.29199 13.791 7.52318C13.5495 7.6659 13.2808 7.7486 13.0051 7.76509C12.7293 7.78157 12.4536 7.73142 12.1987 7.61838L11.1301 8.75164C11.3218 8.82748 11.5181 8.88958 11.7176 8.93749C12.0577 9.01205 12.4056 9.03796 12.7522 9.01455C13.3084 8.97419 13.854 8.83316 14.3657 8.59752L15.2172 9.10974L16.3497 8.42526L16.1539 8.30739Z" fill="#FFC100"/>
<g opacity="0.3">
<path opacity="0.3" d="M16.1539 8.30739L15.4982 7.90849C15.6889 7.817 15.8512 7.66943 15.9658 7.48313C16.0804 7.29683 16.1427 7.07953 16.1454 6.85682C16.1476 6.82513 16.1476 6.79332 16.1454 6.76163C16.1045 6.55532 16.0173 6.36262 15.8913 6.2C15.7652 6.03738 15.6041 5.90968 15.4216 5.82783C14.964 5.54984 14.4455 5.40594 13.9187 5.4108H13.7952H13.659H13.544H13.493C13.4632 5.4086 13.4333 5.4086 13.4035 5.4108C13.1582 5.4488 12.9151 5.50176 12.6755 5.56944L12.3307 5.67825L11.8581 5.84143L11.6793 5.90942C11.3548 6.04167 11.02 6.1433 10.6788 6.21314C10.5382 6.2427 10.3936 6.2427 10.253 6.21314C10.1815 6.19252 10.1128 6.16203 10.0487 6.12247C9.79748 5.96835 9.75916 5.73264 10.2317 5.438C10.4458 5.30176 10.6861 5.21876 10.9345 5.19521C11.1829 5.17167 11.4332 5.20817 11.6665 5.302L12.6713 4.22313C11.6741 3.88854 10.5968 3.95137 9.63995 4.39993L8.78846 3.8877L7.64746 4.59031L8.49895 5.10254C8.32812 5.20954 8.18303 5.35741 8.07514 5.53443C7.96726 5.71145 7.89954 5.91277 7.87736 6.12247C7.87736 6.46698 8.12004 6.7979 8.61816 7.10161C9.71659 7.77703 10.8065 7.55491 11.8027 7.2104C12.7309 6.88855 13.4035 6.51232 13.9315 6.8387C14.2636 7.04722 14.1614 7.29199 13.791 7.52318C13.5495 7.6659 13.2808 7.7486 13.0051 7.76509C12.7293 7.78157 12.4536 7.73142 12.1987 7.61838L11.1301 8.75164C11.3218 8.82748 11.5181 8.88958 11.7176 8.93749C12.0577 9.01205 12.4056 9.03796 12.7522 9.01455C13.3084 8.97419 13.854 8.83316 14.3657 8.59752L15.2172 9.10974L16.3497 8.42526L16.1539 8.30739Z" fill="white"/>
</g>
<path d="M14.3789 8.60645V9.55385L15.2134 10.0706V9.11868L14.3789 8.60645Z" fill="#FFC100"/>
<path opacity="0.45" d="M14.3789 8.60645V9.55385L15.2134 10.0706V9.11868L14.3789 8.60645Z" fill="black"/>
<path opacity="0.5" d="M7.66455 4.59031L8.80129 3.8877L9.64001 4.39993L8.80981 4.03276L7.66455 4.59031Z" fill="#F5F5F5"/>
<path opacity="0.5" d="M10.2148 5.46067C10.4294 5.31792 10.6718 5.22939 10.9234 5.20189C11.1751 5.17439 11.4293 5.20863 11.6666 5.30201L12.6714 4.22314L11.6666 5.18868C11.4227 5.10044 11.1618 5.0791 10.908 5.12664C10.6543 5.17418 10.4159 5.28906 10.2148 5.46067Z" fill="#F5F5F5"/>
<path opacity="0.5" d="M11.1431 8.76094C11.3348 8.83679 11.5311 8.89888 11.7306 8.9468C12.0707 9.02136 12.4186 9.04726 12.7652 9.02385C12.2651 9.02817 11.7696 8.92327 11.3091 8.71561L12.2117 7.62769L11.1431 8.76094Z" fill="#F5F5F5"/>
<path opacity="0.5" d="M14.3789 8.60661L15.2134 9.00552L16.3416 8.42529L15.2134 9.11885L14.3789 8.60661Z" fill="#F5F5F5"/>
<path opacity="0.5" d="M4.42898 2.62885C7.40921 0.71138 12.0158 0.520996 12.0158 0.520996C9.10793 0.520996 6.38316 1.21454 4.35235 2.47019C2.39392 3.67144 1.31678 5.23987 1.31678 6.88989C1.29123 6.88989 1.39767 4.57805 4.42898 2.62885Z" fill="#F5F5F5"/>
<path opacity="0.5" d="M11.1431 13.7516C14.2893 13.9012 17.5293 13.2349 19.9262 11.7571C22.4296 10.2159 23.5025 8.13069 23.1406 6.12256C23.1406 6.12256 23.6089 9.39541 19.7346 11.6347C15.8603 13.874 11.1431 13.7516 11.1431 13.7516Z" fill="#F5F5F5"/>
</svg>
