<svg width="26" height="47" viewBox="0 0 26 47" fill="none" xmlns="http://www.w3.org/2000/svg">
<path d="M25 12.4059V28.8654C25 29.8293 24.6207 30.7538 23.9456 31.4354C23.2705 32.1171 22.3548 32.5 21.4 32.5H4.6C3.64522 32.5 2.72955 32.1171 2.05442 31.4354C1.37928 30.7538 1 29.8293 1 28.8654V4.63462C1 3.67066 1.37928 2.74618 2.05442 2.06455C2.72955 1.38293 3.64522 1 4.6 1H13.375C14.0113 1.0001 13.2528 1.2553 13.7027 1.70951L24.2972 12.4059C24.7471 12.8602 24.9999 11.7635 25 12.4059Z" fill="#219653" stroke="#219653" stroke-width="2" stroke-linejoin="round"/>
<path d="M13.75 1C13.75 4.46847 13.75 9.88158 13.75 9.88158C13.75 10.5097 13.9995 11.1121 14.4437 11.5563C14.8879 12.0005 15.4903 12.25 16.1184 12.25H25" fill="#6FCF97"/>
<path d="M13.75 1C13.75 4.46847 13.75 9.88158 13.75 9.88158C13.75 10.5097 13.9995 11.1121 14.4437 11.5563C14.8879 12.0005 15.4903 12.25 16.1184 12.25H25L13.75 1Z" stroke="#6FCF97" stroke-width="2" stroke-linecap="round" stroke-linejoin="round"/>
<path d="M16.1747 31.6443L14.6647 29.2943L13.2947 31.6443H11.7147L13.9147 28.1243L11.6847 24.6643H13.2947L14.8047 27.0043L16.1647 24.6643H17.7447L15.5547 28.1743L17.7847 31.6443H16.1747ZM20.2502 30.5343H22.5502V31.6443H18.8502V24.6643H20.2502V30.5343ZM19.7563 46.7143C19.2696 46.7143 18.8296 46.631 18.4363 46.4643C18.0496 46.2976 17.7429 46.0576 17.5163 45.7443C17.2896 45.431 17.1729 45.061 17.1663 44.6343H18.6663C18.6863 44.921 18.7863 45.1476 18.9663 45.3143C19.1529 45.481 19.4063 45.5643 19.7263 45.5643C20.0529 45.5643 20.3096 45.4876 20.4963 45.3343C20.6829 45.1743 20.7763 44.9676 20.7763 44.7143C20.7763 44.5076 20.7129 44.3376 20.5863 44.2043C20.4596 44.071 20.2996 43.9676 20.1063 43.8943C19.9196 43.8143 19.6596 43.7276 19.3263 43.6343C18.8729 43.501 18.5029 43.371 18.2163 43.2443C17.9363 43.111 17.6929 42.9143 17.4863 42.6543C17.2863 42.3876 17.1863 42.0343 17.1863 41.5943C17.1863 41.181 17.2896 40.821 17.4963 40.5143C17.7029 40.2076 17.9929 39.9743 18.3663 39.8143C18.7396 39.6476 19.1663 39.5643 19.6463 39.5643C20.3663 39.5643 20.9496 39.741 21.3963 40.0943C21.8496 40.441 22.0996 40.9276 22.1463 41.5543H20.6063C20.5929 41.3143 20.4896 41.1176 20.2963 40.9643C20.1096 40.8043 19.8596 40.7243 19.5463 40.7243C19.2729 40.7243 19.0529 40.7943 18.8863 40.9343C18.7263 41.0743 18.6463 41.2776 18.6463 41.5443C18.6463 41.731 18.7063 41.8876 18.8263 42.0143C18.9529 42.1343 19.1063 42.2343 19.2863 42.3143C19.4729 42.3876 19.7329 42.4743 20.0663 42.5743C20.5196 42.7076 20.8896 42.841 21.1763 42.9743C21.4629 43.1076 21.7096 43.3076 21.9163 43.5743C22.1229 43.841 22.2263 44.191 22.2263 44.6243C22.2263 44.9976 22.1296 45.3443 21.9362 45.6643C21.7429 45.9843 21.4596 46.241 21.0863 46.4343C20.7129 46.621 20.2696 46.7143 19.7563 46.7143Z" fill="#F2F2F2"/>
</svg>
