<svg width="20" height="20" viewBox="0 0 20 20" fill="none" xmlns="http://www.w3.org/2000/svg">
<path d="M0 9.08262C0 7.77737 0.636844 6.55421 1.70615 5.80569L7.70615 1.6057C9.08343 0.6416 10.9166 0.641598 12.2938 1.60569L18.2938 5.80569C19.3632 6.55421 20 7.77737 20 9.08262V16.5C20 18.433 18.433 20 16.5 20H15.75C14.2312 20 13 18.7688 13 17.25C13 15.7312 11.7688 14.5 10.25 14.5H9.75C8.23122 14.5 7 15.7312 7 17.25C7 18.7688 5.76878 20 4.25 20H3.5C1.567 20 0 18.433 0 16.5V9.08262Z" fill="#D4E1F5"/>
</svg>
