<svg width="26" height="47" viewBox="0 0 26 47" fill="none" xmlns="http://www.w3.org/2000/svg">
<path d="M25 12.4059V28.8654C25 29.8293 24.6207 30.7538 23.9456 31.4354C23.2705 32.1171 22.3548 32.5 21.4 32.5H4.6C3.64522 32.5 2.72955 32.1171 2.05442 31.4354C1.37928 30.7538 1 29.8293 1 28.8654V4.63462C1 3.67066 1.37928 2.74618 2.05442 2.06455C2.72955 1.38293 3.64522 1 4.6 1H13.375C14.0113 1.0001 13.2528 1.2553 13.7027 1.70951L24.2972 12.4059C24.7471 12.8602 24.9999 11.7635 25 12.4059Z" fill="#2F80ED" stroke="#2F80ED" stroke-width="2" stroke-linejoin="round"/>
<path d="M13.75 1C13.75 4.46847 13.75 9.88158 13.75 9.88158C13.75 10.5097 13.9995 11.1121 14.4437 11.5563C14.8879 12.0005 15.4903 12.25 16.1184 12.25H25" fill="#56CCF2"/>
<path d="M13.75 1C13.75 4.46847 13.75 9.88158 13.75 9.88158C13.75 10.5097 13.9995 11.1121 14.4437 11.5563C14.8879 12.0005 15.4903 12.25 16.1184 12.25H25L13.75 1Z" stroke="#56CCF2" stroke-width="2" stroke-linecap="round" stroke-linejoin="round"/>
<path d="M15.7229 24.6643V29.5643C15.7229 30.2443 15.5262 30.7743 15.1329 31.1543C14.7396 31.5276 14.2129 31.7143 13.5529 31.7143C12.8862 31.7143 12.3462 31.521 11.9329 31.1343C11.5262 30.7476 11.3229 30.2076 11.3229 29.5143H12.7229C12.7296 29.8143 12.7996 30.0476 12.9329 30.2143C13.0729 30.381 13.2729 30.4643 13.5329 30.4643C13.7862 30.4643 13.9796 30.3843 14.1129 30.2243C14.2462 30.0643 14.3129 29.8443 14.3129 29.5643V24.6643H15.7229ZM22.446 26.8243C22.446 27.1976 22.356 27.5476 22.176 27.8743C22.0027 28.201 21.726 28.4643 21.346 28.6643C20.9727 28.8643 20.4993 28.9643 19.926 28.9643H18.756V31.6443H17.356V24.6643H19.926C20.466 24.6643 20.926 24.7576 21.306 24.9443C21.686 25.131 21.9693 25.3876 22.156 25.7143C22.3493 26.041 22.446 26.411 22.446 26.8243ZM19.866 27.8343C20.2527 27.8343 20.5393 27.7476 20.726 27.5743C20.9127 27.3943 21.006 27.1443 21.006 26.8243C21.006 26.1443 20.626 25.8043 19.866 25.8043H18.756V27.8343H19.866ZM20.6242 41.7643C20.4642 41.471 20.2442 41.2476 19.9642 41.0943C19.6842 40.941 19.3576 40.8643 18.9842 40.8643C18.5709 40.8643 18.2042 40.9576 17.8842 41.1443C17.5642 41.331 17.3142 41.5976 17.1342 41.9443C16.9542 42.291 16.8642 42.691 16.8642 43.1443C16.8642 43.611 16.9542 44.0176 17.1342 44.3643C17.3209 44.711 17.5776 44.9776 17.9042 45.1643C18.2309 45.351 18.6109 45.4443 19.0442 45.4443C19.5776 45.4443 20.0142 45.3043 20.3542 45.0243C20.6942 44.7376 20.9176 44.341 21.0242 43.8343H18.6242V42.7643H22.4042V43.9843C22.3109 44.471 22.1109 44.921 21.8042 45.3343C21.4976 45.7476 21.1009 46.081 20.6142 46.3343C20.1342 46.581 19.5942 46.7043 18.9942 46.7043C18.3209 46.7043 17.7109 46.5543 17.1642 46.2543C16.6242 45.9476 16.1976 45.5243 15.8842 44.9843C15.5776 44.4443 15.4242 43.831 15.4242 43.1443C15.4242 42.4576 15.5776 41.8443 15.8842 41.3043C16.1976 40.7576 16.6242 40.3343 17.1642 40.0343C17.7109 39.7276 18.3176 39.5743 18.9842 39.5743C19.7709 39.5743 20.4542 39.7676 21.0342 40.1543C21.6142 40.5343 22.0142 41.071 22.2342 41.7643H20.6242Z" fill="#F2F2F2"/>
</svg>
