<?xml version="1.0" encoding="iso-8859-1"?>
<!-- Generator: Adobe Illustrator 19.0.0, SVG Export Plug-In . SVG Version: 6.00 Build 0)  -->
<svg version="1.1" id="Layer_1" xmlns="http://www.w3.org/2000/svg" xmlns:xlink="http://www.w3.org/1999/xlink" x="0px" y="0px"
	 viewBox="0 0 512.4 512.4" style="enable-background:new 0 0 512.4 512.4;" xml:space="preserve">
<g>
	<g>
		<path d="M511.919,387.336L444.868,74.44c-2.475-11.52-13.867-18.923-25.301-16.384l-36.075,7.723
			c-4.459-30.976-30.912-54.912-63.083-54.912c-35.307,0-64,28.693-64,64c0,6.123,1.131,11.947,2.752,17.557l-17.984,3.84
			L67.418,73.672c-5.611-0.683-11.264,0.832-15.765,4.267c-4.501,3.456-7.424,8.576-8.149,14.187L0.175,430.685
			c-1.493,11.669,6.741,22.357,18.411,23.872l144.469,18.795c1.152,1.173,2.133,2.517,3.541,3.413
			c3.477,2.261,7.488,3.435,11.584,3.435c1.493,0,2.987-0.171,4.48-0.469l11.136-2.389l184.64,24
			c0.917,0.128,1.835,0.192,2.752,0.192c4.693,0,9.28-1.557,13.035-4.437c4.459-3.456,7.381-8.533,8.107-14.144l6.741-51.755
			l86.485-18.517C507.076,410.205,514.394,398.856,511.919,387.336z M45.188,415.005l37.909-296.256l33.131,4.288l-9.579,2.069
			c-11.52,2.453-18.859,13.803-16.384,25.323l59.584,278.165L45.188,415.005z M422.532,275.592
			c2.475,11.52-4.864,22.848-16.384,25.323l-62.592,13.419c-1.515,0.32-3.008,0.469-4.48,0.469c-9.835,0-18.688-6.848-20.843-16.853
			c-2.475-11.52,4.864-22.869,16.384-25.323l62.571-13.44C408.858,256.691,420.036,264.072,422.532,275.592z M383.77,196.616
			c11.648-2.539,22.869,4.864,25.344,16.405c2.475,11.52-4.864,22.869-16.384,25.323l-41.707,8.939
			c-1.515,0.32-3.029,0.469-4.501,0.469c-9.856,0-18.688-6.848-20.821-16.853c-2.496-11.52,4.843-22.869,16.363-25.344
			L383.77,196.616z M320.41,53.533c11.755,0,21.333,9.557,21.333,21.333c0,5.589-2.283,10.603-5.824,14.421
			c-0.555,0.619-1.237,1.067-1.856,1.6c-1.301,1.131-2.731,2.112-4.288,2.901c-0.64,0.32-1.301,0.661-1.984,0.917
			c-2.325,0.853-4.779,1.493-7.381,1.493c-4.971,0-8.576-1.835-11.392-3.776c-5.845-3.797-9.941-10.091-9.941-17.557
			C299.076,63.091,308.634,53.533,320.41,53.533z M179.674,262.173c-2.475-11.52,4.843-22.848,16.363-25.323l62.592-13.419
			c11.605-2.432,22.869,4.885,25.344,16.405c2.475,11.52-4.864,22.848-16.384,25.323l-62.592,13.419
			c-1.515,0.32-3.008,0.469-4.501,0.469C190.66,279.048,181.807,272.2,179.674,262.173z M193.071,324.765
			c-2.475-11.52,4.864-22.869,16.384-25.344l41.728-8.939c11.435-2.539,22.848,4.885,25.323,16.405s-4.885,22.848-16.405,25.323
			l-41.728,8.939c-1.493,0.32-2.987,0.469-4.48,0.469C204.036,341.619,195.204,334.771,193.071,324.765z M231.812,403.741
			c-1.515,0.32-3.008,0.469-4.501,0.469c-9.856,0-18.688-6.869-20.821-16.875c-2.496-11.52,4.843-22.869,16.363-25.323
			l83.435-17.877c11.627-2.475,22.869,4.885,25.344,16.384c2.475,11.52-4.864,22.869-16.384,25.344L231.812,403.741z
			 M362.778,456.285l-44.032-5.717l46.08-9.877L362.778,456.285z M419.546,363.507l-20.885,4.459
			c-1.493,0.341-2.987,0.469-4.459,0.469c-9.856,0-18.688-6.848-20.843-16.853c-2.475-11.52,4.864-22.869,16.405-25.344
			l20.864-4.459c11.435-2.475,22.827,4.885,25.323,16.405C438.426,349.704,431.066,361.032,419.546,363.507z"/>
	</g>
</g>
<g>
</g>
<g>
</g>
<g>
</g>
<g>
</g>
<g>
</g>
<g>
</g>
<g>
</g>
<g>
</g>
<g>
</g>
<g>
</g>
<g>
</g>
<g>
</g>
<g>
</g>
<g>
</g>
<g>
</g>
</svg>
