<svg width="26" height="47" viewBox="0 0 26 47" fill="none" xmlns="http://www.w3.org/2000/svg">
<path d="M25 12.4059V28.8654C25 29.8293 24.6207 30.7538 23.9456 31.4354C23.2705 32.1171 22.3548 32.5 21.4 32.5H4.6C3.64522 32.5 2.72955 32.1171 2.05442 31.4354C1.37928 30.7538 1 29.8293 1 28.8654V4.63462C1 3.67066 1.37928 2.74618 2.05442 2.06455C2.72955 1.38293 3.64522 1 4.6 1H13.375C14.0113 1.0001 13.2528 1.2553 13.7027 1.70951L24.2972 12.4059C24.7471 12.8602 24.9999 11.7635 25 12.4059Z" fill="#EB5757" stroke="#EB5757" stroke-width="2" stroke-linejoin="round"/>
<path d="M13.75 1C13.75 4.46847 13.75 9.88158 13.75 9.88158C13.75 10.5097 13.9995 11.1121 14.4437 11.5563C14.8879 12.0005 15.4903 12.25 16.1184 12.25H25" fill="#F9A2A2"/>
<path d="M13.75 1C13.75 4.46847 13.75 9.88158 13.75 9.88158C13.75 10.5097 13.9995 11.1121 14.4437 11.5563C14.8879 12.0005 15.4903 12.25 16.1184 12.25H25L13.75 1Z" stroke="#F9A2A2" stroke-width="2" stroke-linecap="round" stroke-linejoin="round"/>
<path d="M15.278 26.8243C15.278 27.1976 15.188 27.5476 15.008 27.8743C14.8347 28.201 14.558 28.4643 14.178 28.6643C13.8047 28.8643 13.3314 28.9643 12.758 28.9643H11.588V31.6443H10.188V24.6643H12.758C13.298 24.6643 13.758 24.7576 14.138 24.9443C14.518 25.131 14.8014 25.3876 14.988 25.7143C15.1814 26.041 15.278 26.411 15.278 26.8243ZM12.698 27.8343C13.0847 27.8343 13.3714 27.7476 13.558 27.5743C13.7447 27.3943 13.838 27.1443 13.838 26.8243C13.838 26.1443 13.458 25.8043 12.698 25.8043H11.588V27.8343H12.698ZM18.712 24.6643C19.4454 24.6643 20.0887 24.8076 20.642 25.0943C21.202 25.381 21.632 25.791 21.932 26.3243C22.2387 26.851 22.392 27.4643 22.392 28.1643C22.392 28.8643 22.2387 29.4776 21.932 30.0043C21.632 30.5243 21.202 30.9276 20.642 31.2143C20.0887 31.501 19.4454 31.6443 18.712 31.6443H16.272V24.6643H18.712ZM18.662 30.4543C19.3954 30.4543 19.962 30.2543 20.362 29.8543C20.762 29.4543 20.962 28.891 20.962 28.1643C20.962 27.4376 20.762 26.871 20.362 26.4643C19.962 26.051 19.3954 25.8443 18.662 25.8443H17.672V30.4543H18.662ZM22.4473 39.6643V40.7943H19.5373V42.5843H21.7673V43.6943H19.5373V46.6443H18.1373V39.6643H22.4473Z" fill="#F2F2F2"/>
</svg>
