<svg width="24" height="24" viewBox="0 0 24 24" fill="none" xmlns="http://www.w3.org/2000/svg">
<path fill-rule="evenodd" clip-rule="evenodd" d="M12.7307 2.23748C12.3354 1.81458 11.6648 1.81458 11.2695 2.23748L9.28404 4.36186C9.0869 4.57279 8.80822 4.68822 8.51967 4.67847L5.61357 4.58025C5.03504 4.5607 4.56081 5.03493 4.58036 5.61346L4.67857 8.51957C4.68832 8.80811 4.57289 9.08679 4.36196 9.28393L2.23759 11.2694C1.81468 11.6647 1.81468 12.3353 2.23759 12.7306L4.36196 14.7161C4.57289 14.9132 4.68832 15.1919 4.67857 15.4804L4.58036 18.3865C4.56081 18.9651 5.03504 19.4393 5.61357 19.4197L8.51967 19.3215C8.80822 19.3118 9.0869 19.4272 9.28404 19.6381L11.2695 21.7625C11.6648 22.1854 12.3354 22.1854 12.7307 21.7625L14.7162 19.6381C14.9133 19.4272 15.192 19.3118 15.4805 19.3215L18.3866 19.4197C18.9652 19.4393 19.4394 18.9651 19.4198 18.3865L19.3216 15.4804C19.3119 15.1919 19.4273 14.9132 19.6382 14.7161L21.7626 12.7306C22.1855 12.3353 22.1855 11.6647 21.7626 11.2694L19.6382 9.28393C19.4273 9.08679 19.3119 8.80811 19.3216 8.51957L19.4198 5.61346C19.4394 5.03493 18.9652 4.5607 18.3866 4.58025L15.4805 4.67847C15.192 4.68822 14.9133 4.57278 14.7162 4.36186L12.7307 2.23748ZM12.0001 15.5147C13.9412 15.5147 15.5148 13.9411 15.5148 12C15.5148 10.0589 13.9412 8.48526 12.0001 8.48526C10.059 8.48526 8.48537 10.0589 8.48537 12C8.48537 13.9411 10.059 15.5147 12.0001 15.5147Z" fill="white"/>
</svg>
